<svg width="512" height="512" viewBox="0 0 512 512" fill="none" xmlns="http://www.w3.org/2000/svg">
<g clip-path="url(#clip0)">
<path d="M477.801 312.832C477.801 418.047 378.473 503.465 255.934 503.465C251.668 503.465 247.398 503.383 243.133 503.125C126.566 497.492 34.0664 414.379 34.0664 312.832C34.0586 292.863 37.6719 273.059 44.7344 254.379C48.1797 245.461 50.3086 236.09 51.0469 226.559C52.8789 202.613 59.1875 179.227 69.6524 157.609L89.0195 125.781C113.117 93.2031 146.398 68.5703 184.594 55.0391H184.68C203.496 48.2891 223.18 44.2656 243.133 43.0938C245.18 42.9219 247.23 42.8359 249.277 42.7539C251.496 42.668 253.715 42.668 255.934 42.668C258.152 42.668 260.371 42.668 262.59 42.7539C284.656 43.4648 306.48 47.6133 327.273 55.0391H327.355C365.512 68.6445 398.773 93.2656 422.93 125.781L442.215 157.609C452.68 179.195 458.988 202.559 460.82 226.477C461.559 236.004 463.688 245.379 467.133 254.293C474.191 273.004 477.809 292.836 477.801 312.832V312.832Z" fill="#BF8608"/>
<path d="M452.199 312.832C452.199 414.379 359.699 497.492 243.133 503.125C126.566 497.492 34.0664 414.379 34.0664 312.832C34.0586 292.863 37.6719 273.059 44.7344 254.379C48.1797 245.461 50.3086 236.09 51.0469 226.559C52.8789 202.613 59.1875 179.227 69.6524 157.609L89.0195 125.781C113.117 93.2031 146.398 68.5703 184.594 55.0391H184.68C203.496 48.2891 223.18 44.2656 243.133 43.0938C263.117 44.2656 282.828 48.2891 301.672 55.0391H301.758C339.914 68.6445 373.172 93.2656 397.332 125.781L416.617 157.609C427.078 179.195 433.391 202.559 435.219 226.477C435.957 236.004 438.086 245.379 441.535 254.293C448.594 273.004 452.207 292.836 452.199 312.832V312.832Z" fill="#FEB20A"/>
<path d="M230.164 312.66C235.891 303.316 238.906 292.562 238.867 281.601C238.867 257.441 224.313 235.66 201.992 226.414C179.672 217.168 153.98 222.277 136.895 239.363C119.813 256.445 114.703 282.137 123.945 304.457C133.191 326.781 154.973 341.332 179.133 341.332C181.016 341.348 182.898 341.234 184.766 340.992L230.164 312.66Z" fill="white"/>
<path d="M204.734 273.066C204.734 282.492 197.094 290.133 187.668 290.133C178.242 290.133 170.602 282.492 170.602 273.066C170.602 263.641 178.242 256 187.668 256C197.094 256 204.734 263.641 204.734 273.066V273.066Z" fill="#00BCD4"/>
<path d="M255.934 8.53516C251.668 8.53516 247.398 8.61719 243.133 8.61719C121.875 11.3477 25.5352 52.3086 25.5352 102.398C25.5352 123.051 41.918 142.164 69.6523 157.609C108.902 179.625 171.027 194.305 241.684 196.098H244.586C248.34 196.266 252.094 196.266 255.934 196.266C332.477 196.266 400.316 181.078 442.215 157.609C469.949 142.164 486.332 123.051 486.332 102.398C486.332 50.5156 383.164 8.53516 255.934 8.53516V8.53516ZM243.816 153.43H243.73C243.336 153.516 242.93 153.516 242.535 153.43H242.449C237.93 153.344 233.492 153.172 229.141 153.09C221.289 152.746 213.523 152.32 205.93 151.723C205.137 151.625 204.336 151.566 203.539 151.551C196.625 150.953 189.887 150.355 183.316 149.59C167.512 147.875 151.812 145.281 136.297 141.824C134.676 141.484 133.055 141.141 131.516 140.715C129.98 140.289 128.359 139.945 126.824 139.52C125.289 139.094 123.754 138.754 122.301 138.324C122.156 138.305 122.016 138.277 121.875 138.238C117.609 137.047 113.598 135.766 109.758 134.484C105.746 133.121 102.078 131.754 98.5781 130.305C97.2969 129.707 96.0195 129.195 94.8242 128.598C92.7773 127.742 90.8125 126.719 89.0195 125.781C75.7109 118.871 68.1992 110.848 68.1992 102.398C68.1992 81.0664 116.328 62.7188 184.594 55.0391H184.68C187.238 54.1016 189.801 53.2461 192.359 52.4805C196.797 51.0312 201.32 49.8359 205.844 48.7266C207.633 48.2148 209.512 47.7852 211.391 47.4453C216.938 46.25 222.652 45.2266 228.371 44.457L235.453 43.6914C237.93 43.4336 240.402 43.2656 242.879 43.0938H243.391C245.352 42.9219 247.316 42.8359 249.277 42.7539C251.496 42.668 253.715 42.668 255.934 42.668C258.152 42.668 260.371 42.668 262.59 42.7539C284.656 43.4648 306.48 47.6133 327.273 55.0391H327.355C395.625 62.7188 443.668 81.0664 443.668 102.398C443.668 110.848 436.242 118.785 422.93 125.781C391.785 142.336 328.723 153.602 255.934 153.602C251.836 153.602 247.828 153.602 243.816 153.43V153.43Z" fill="#CFD8DC"/>
<path d="M243.133 8.61719C121.875 11.3477 25.5352 52.3086 25.5352 102.398C25.5352 123.051 41.918 142.164 69.6523 157.609C108.902 179.625 171.027 194.305 241.684 196.098H244.586C315.238 194.305 377.363 179.625 416.617 157.609C444.348 142.164 460.734 123.051 460.734 102.398C460.734 52.3086 364.391 11.3477 243.133 8.61719V8.61719ZM422.93 125.781C391.785 142.336 328.723 153.602 255.934 153.602C251.836 153.602 247.828 153.602 243.816 153.43H243.73C243.336 153.516 242.93 153.516 242.535 153.43H242.449C238.441 153.602 234.43 153.602 230.332 153.602C157.629 153.602 124.945 142.336 93.8008 125.781C80.4883 118.871 72.9805 110.848 72.9805 102.398C72.9805 81.0664 90.7266 62.7188 158.996 55.0391H159.078C179.844 47.6133 201.637 43.4648 223.676 42.7539C225.895 42.668 228.113 42.668 230.332 42.668C232.551 42.668 234.77 42.668 236.988 42.7539C238.953 42.8359 240.914 42.9219 242.879 43.0938H243.391C245.352 42.9219 247.316 42.8359 249.277 42.7539C251.496 42.668 253.715 42.668 255.934 42.668C258.152 42.668 260.371 42.668 262.59 42.7539C284.656 43.4648 306.48 47.6133 327.273 55.0391H327.355C395.625 62.7188 443.668 81.0664 443.668 102.398C443.668 110.848 436.242 118.785 422.93 125.781V125.781Z" fill="white"/>
<path d="M392.465 281.602C392.465 314.59 365.723 341.332 332.734 341.332C330.851 341.348 328.969 341.234 327.101 340.992L323.859 338.945L281.703 312.66C275.976 303.316 272.961 292.563 273 281.602C272.988 253.535 292.519 229.246 319.933 223.23C324.141 222.34 328.43 221.879 332.734 221.867C348.574 221.867 363.769 228.16 374.973 239.363C386.172 250.562 392.465 265.758 392.465 281.602V281.602Z" fill="#CFD8DC"/>
<path d="M366.867 281.602C366.891 308.156 349.359 331.531 323.859 338.945L281.703 312.66C275.976 303.316 272.961 292.563 273 281.602C272.988 253.535 292.519 229.246 319.933 223.23C347.348 229.246 366.879 253.535 366.867 281.602V281.602Z" fill="white"/>
<path d="M341.266 273.066C341.266 282.492 333.625 290.133 324.199 290.133C314.773 290.133 307.133 282.492 307.133 273.066C307.133 263.641 314.773 256 324.199 256C333.625 256 341.266 263.641 341.266 273.066V273.066Z" fill="#00BCD4"/>
<path d="M494.867 102.398C494.867 44.9805 389.906 0 255.934 0C121.961 0 17 44.9805 17 102.398C17 124.383 32.418 144.52 58.9141 161.031C49.8398 181.594 44.3047 203.539 42.5391 225.945C41.8555 234.656 39.9062 243.219 36.7461 251.367C29.3242 271.008 25.5273 291.836 25.5352 312.832C25.5352 422.648 128.891 512 255.934 512C382.977 512 486.332 422.648 486.332 312.832C486.344 291.793 482.543 270.93 475.113 251.246C471.953 243.102 470.004 234.535 469.328 225.824C467.555 203.461 462.02 181.555 452.949 161.031C479.445 144.52 494.867 124.383 494.867 102.398ZM452.301 227.09C453.094 237.438 455.395 247.613 459.129 257.297C465.836 275.043 469.27 293.859 469.266 312.832C469.266 413.242 373.566 494.934 255.934 494.934C138.301 494.934 42.6016 413.242 42.6016 312.832C42.5938 293.902 46.0195 275.125 52.7109 257.418C56.4492 247.734 58.7461 237.559 59.5391 227.207C61.1172 207.277 65.9609 187.738 73.875 169.379C117.387 191.148 182.246 204.801 255.934 204.801C329.617 204.801 394.48 191.148 437.977 169.379C445.879 187.699 450.719 207.195 452.301 227.09ZM255.934 187.734C123.215 187.734 34.0664 143.609 34.0664 102.398C34.0664 61.1914 123.215 17.0664 255.934 17.0664C388.652 17.0664 477.801 61.1914 477.801 102.398C477.801 143.609 388.652 187.734 255.934 187.734Z" fill="black"/>
<path d="M329.062 46.6445C307.773 39.1484 285.461 34.9609 262.906 34.2266C258.254 34.0391 253.578 34.0391 248.996 34.2266C226.449 34.957 204.145 39.1484 182.871 46.6523C152.961 50.0664 59.668 63.8477 59.668 102.398C59.668 114.176 68.1992 124.586 85.0195 133.316C118.469 151.09 183.953 162.133 255.934 162.133C327.91 162.133 393.48 151.09 426.898 133.332C443.668 124.512 452.199 114.098 452.199 102.398C452.199 63.8203 358.938 50.0664 329.062 46.6445ZM131.414 72.9609C114.637 84.625 99.6602 98.6836 86.957 114.688C80.4805 110.414 76.7344 106.02 76.7344 102.398C76.7344 94.4883 94.1172 82.3398 131.414 72.9609ZM102.453 122.59C124.742 95.5547 153.934 75.0625 186.934 63.2812C187.164 63.2227 187.387 63.1484 187.605 63.0781C207.547 55.9453 228.477 51.9609 249.645 51.2773C251.711 51.1992 253.809 51.1406 255.934 51.1992C258.059 51.2578 260.199 51.1992 262.301 51.2773C283.484 51.957 304.43 55.9414 324.387 63.0781C324.594 63.1484 324.805 63.2148 325.02 63.2656C357.996 75.1211 387.184 95.6172 409.535 122.605C376.297 136.379 317.961 145.066 255.934 145.066C193.906 145.066 135.699 136.387 102.453 122.59V122.59ZM425.012 114.672C412.254 98.6602 397.227 84.5977 380.41 72.9258C417.727 82.3047 435.133 94.4805 435.133 102.398C435.133 106.043 431.48 110.371 424.969 114.672H425.012Z" fill="black"/>
<path d="M382.621 375.551C377.961 376.23 374.73 380.551 375.398 385.211C375.391 392.789 372.441 400.066 367.176 405.512C355.414 419.055 326.574 435.199 255.883 435.199C185.91 435.199 157.016 419.355 145.094 406.066C139.508 400.566 136.367 393.051 136.383 385.211C137.051 380.547 133.812 376.223 129.145 375.551C124.48 374.883 120.156 378.121 119.484 382.789C118.609 395.309 123.051 407.617 131.715 416.699C152.168 440.32 193.922 452.266 255.812 452.266H255.934C317.816 452.266 359.57 440.32 380.023 416.699C388.691 407.617 393.133 395.309 392.262 382.789C391.594 378.129 387.277 374.891 382.621 375.551V375.551Z" fill="black"/>
<path d="M162.391 347.707C161.531 351.074 162.797 354.629 165.594 356.691C168.391 358.754 172.16 358.914 175.121 357.094L235.101 319.598L243.348 314.48C245.266 313.281 246.629 311.367 247.141 309.16C247.648 306.957 247.262 304.641 246.059 302.719C245.621 302.094 245.09 301.535 244.488 301.066C252.453 274.352 243.375 245.48 221.559 228.133C199.742 210.781 169.57 208.438 145.336 222.211C121.101 235.984 107.676 263.109 111.418 290.73C115.164 318.352 135.324 340.922 162.348 347.75L162.391 347.707ZM179.133 230.398C197.32 230.352 214.164 239.98 223.348 255.68C232.531 271.383 232.668 290.781 223.711 306.609L182.086 332.629C181.105 332.707 180.113 332.801 179.133 332.801C150.855 332.801 127.934 309.879 127.934 281.602C127.934 253.324 150.855 230.398 179.133 230.398V230.398Z" fill="black"/>
<path d="M187.668 298.668C201.805 298.668 213.266 287.207 213.266 273.066C213.266 258.93 201.805 247.465 187.668 247.465C173.527 247.465 162.066 258.93 162.066 273.066C162.066 287.207 173.527 298.668 187.668 298.668ZM187.668 264.535C192.379 264.535 196.199 268.355 196.199 273.066C196.199 277.781 192.379 281.602 187.668 281.602C182.953 281.602 179.133 277.781 179.133 273.066C179.133 268.355 182.953 264.535 187.668 264.535Z" fill="black"/>
<path d="M324.199 298.668C338.34 298.668 349.801 287.207 349.801 273.066C349.801 258.93 338.34 247.465 324.199 247.465C310.062 247.465 298.602 258.93 298.602 273.066C298.602 287.207 310.062 298.668 324.199 298.668ZM324.199 264.535C328.914 264.535 332.734 268.355 332.734 273.066C332.734 277.781 328.914 281.602 324.199 281.602C319.488 281.602 315.668 277.781 315.668 273.066C315.668 268.355 319.488 264.535 324.199 264.535V264.535Z" fill="black"/>
<path d="M265.766 302.676C264.562 304.598 264.176 306.914 264.684 309.117C265.195 311.324 266.559 313.238 268.477 314.437L276.73 319.555L336.719 357.051C339.676 358.918 343.477 358.781 346.289 356.707C349.105 354.633 350.359 351.043 349.449 347.664C376.52 340.855 396.727 318.262 400.488 290.605C404.25 262.945 390.812 235.777 366.543 221.984C342.273 208.191 312.059 210.547 290.219 227.93C268.379 245.316 259.309 274.234 267.309 300.98C266.715 301.469 266.195 302.039 265.766 302.676V302.676ZM332.734 230.398C361.012 230.398 383.934 253.324 383.934 281.602C383.934 309.879 361.012 332.801 332.734 332.801C331.754 332.801 330.762 332.707 329.781 332.629L288.156 306.609C279.199 290.781 279.336 271.383 288.519 255.68C297.703 239.98 314.543 230.352 332.734 230.398V230.398Z" fill="black"/>
</g>
<defs>
<clipPath id="clip0">
<rect width="512" height="512" fill="white"/>
</clipPath>
</defs>
</svg>
