<svg width="512" height="512" viewBox="0 0 512 512" fill="none" xmlns="http://www.w3.org/2000/svg">
<g clip-path="url(#clip0)">
<path d="M416.115 388.268C422.97 399.901 426.564 413.166 426.525 426.666C426.463 469.056 392.115 503.4 349.729 503.466H161.997C119.607 503.4 85.264 469.056 85.1976 426.666C85.1585 413.166 88.7561 399.901 95.6076 388.268C41.8739 327.078 27.6632 240.63 58.9831 165.459C90.3069 90.2839 161.689 39.5034 242.977 34.5659C247.242 34.312 251.512 34.1402 255.863 34.1402C295.308 34.0777 333.987 45.0111 367.561 65.714L424.392 116.827C487.11 197.575 483.638 311.488 416.115 388.268V388.268Z" fill="#BF8608"/>
<path d="M390.518 388.268C397.369 399.901 400.967 413.166 400.928 426.666C400.861 469.056 366.514 503.4 324.128 503.466H161.997C119.607 503.4 85.264 469.056 85.1976 426.666C85.1585 413.166 88.7561 399.901 95.6076 388.268C41.8739 327.078 27.6632 240.63 58.9831 165.459C90.3069 90.284 161.689 39.5034 242.977 34.5659C278.047 36.562 312.066 47.2689 341.964 65.714L398.795 116.827C461.509 197.576 458.036 311.488 390.518 388.268V388.268Z" fill="#FEB20A"/>
<path d="M392.393 226.138C392.397 234.024 390.705 241.825 387.444 249.004V249.09C359.03 253.016 335.733 264.707 323.956 280.067H323.87C317.413 278.563 311.304 275.84 305.867 272.047C287.64 259.743 278.414 237.825 282.351 216.192C286.293 194.556 302.652 177.298 324.042 172.209C328.261 171.173 332.585 170.658 336.929 170.67C344.225 170.67 351.448 172.119 358.174 174.939L358.518 175.025L364.917 178.267C381.94 188.197 392.404 206.427 392.393 226.138V226.138Z" fill="#CFD8DC"/>
<path d="M366.795 226.138C366.795 234.024 365.108 241.825 361.846 249.005V249.09C338.636 252.333 337.015 270.254 324.128 281.602C309.366 271.703 281.461 245.337 281.461 226.138C281.472 200.474 299.081 178.17 324.042 172.209C326.956 172.884 329.812 173.798 332.577 174.939L332.917 175.025L339.315 178.267C356.342 188.197 366.803 206.427 366.795 226.138V226.138Z" fill="white"/>
<path d="M392.393 426.666C392.428 437.994 387.944 448.865 379.936 456.877C371.924 464.884 361.053 469.369 349.729 469.334H161.997C138.431 469.334 119.33 450.232 119.33 426.666C119.33 403.104 138.431 384.003 161.997 384.003H349.729C373.291 384.003 392.393 403.104 392.393 426.666Z" fill="#CFD8DC"/>
<path d="M366.795 426.666C366.827 437.994 362.342 448.865 354.335 456.877C346.327 464.884 335.456 469.369 324.128 469.334H161.997C138.431 469.334 119.33 450.232 119.33 426.666C119.33 403.104 138.431 384.003 161.997 384.003H324.128C347.69 384.003 366.795 403.104 366.795 426.666Z" fill="white"/>
<path d="M452.126 74.2451C452.099 78.7489 451.47 83.2255 450.247 87.5574C445.665 106.362 428.818 119.596 409.459 119.596C390.104 119.596 373.256 106.362 368.67 87.5574C367.452 83.2255 366.819 78.7489 366.795 74.2451C366.795 51.1204 384.115 30.8121 396.662 19.1208C400.674 15.2967 404.951 11.7616 409.459 8.53894C409.459 8.53894 452.126 37.98 452.126 74.2451Z" fill="#0FB300"/>
<path d="M426.525 74.2451C426.502 78.749 425.869 83.2255 424.65 87.5574C421.189 101.76 410.584 113.139 396.662 117.596C382.737 113.139 372.131 101.76 368.67 87.5574C367.452 83.2255 366.819 78.749 366.795 74.2451C366.795 51.1204 384.115 30.8121 396.662 19.1208C409.205 30.8121 426.525 51.1204 426.525 74.2451Z" fill="#51FF41"/>
<path d="M230.262 226.138C230.274 251.751 212.747 274.039 187.852 280.067H187.767C175.989 264.707 152.697 253.016 124.279 249.09V249.005C112.545 223.138 122.275 192.583 146.806 178.267L153.208 175.025L153.548 174.939C160.279 172.119 167.501 170.67 174.798 170.67C189.509 170.67 203.614 176.513 214.016 186.915C224.418 197.318 230.262 211.427 230.262 226.138Z" fill="white"/>
<path d="M196.13 221.872C196.13 231.298 188.49 238.939 179.064 238.939C169.638 238.939 161.997 231.298 161.997 221.872C161.997 212.446 169.638 204.806 179.064 204.806C188.49 204.806 196.13 212.446 196.13 221.872Z" fill="#FF9801"/>
<path d="M349.73 221.872C349.73 231.298 342.085 238.939 332.663 238.939C323.237 238.939 315.593 231.298 315.593 221.872C315.593 212.446 323.237 204.806 332.663 204.806C342.085 204.806 349.73 212.446 349.73 221.872Z" fill="#FF9801"/>
<path d="M437.013 119.803C447.634 112.788 455.29 102.092 458.509 89.7761C459.915 84.7176 460.638 79.495 460.661 74.2451C460.661 33.9331 416.201 2.81246 414.299 1.5156C411.389 -0.5039 407.529 -0.5039 404.623 1.5156C386.158 14.5428 371.541 32.2964 362.296 52.9134C268.855 1.78123 152.263 24.2887 84.5687 106.522C16.8704 188.759 17.1868 307.504 85.3187 389.378C79.6118 400.979 76.6509 413.741 76.6665 426.666C76.7173 473.775 114.889 511.946 161.997 512.001H349.729C396.834 511.946 435.009 473.775 435.06 426.666C435.072 413.737 432.115 400.975 426.408 389.37C459.583 349.527 477.743 299.316 477.728 247.469C477.849 201.704 463.607 157.053 437.013 119.803V119.803ZM409.459 19.2732C419.912 27.7301 443.591 49.6009 443.591 74.2295C443.572 77.9599 443.052 81.6747 442.048 85.2723C438.423 100.331 424.951 110.948 409.459 110.948C393.971 110.948 380.494 100.331 376.873 85.2723C375.87 81.6825 375.35 77.9716 375.327 74.2451C375.327 49.6946 399.025 27.7574 409.459 19.2732V19.2732ZM416.705 373.897C413.654 370.022 410.279 366.417 406.611 363.12C403.092 360.03 397.744 360.351 394.619 363.839C391.498 367.327 391.768 372.679 395.229 375.835C400.897 380.975 405.662 387.034 409.322 393.756C414.998 403.795 417.986 415.135 417.994 426.666C417.951 464.353 387.412 494.892 349.729 494.935H161.997C124.31 494.892 93.7717 464.353 93.7327 426.666C93.7092 414.729 96.8811 402.999 102.912 392.698C107.111 385.389 112.604 378.905 119.127 373.565C121.584 371.675 122.822 368.604 122.365 365.538C121.904 362.472 119.822 359.898 116.916 358.808C114.014 357.722 110.752 358.296 108.393 360.304C103.436 364.327 98.9474 368.89 95.01 373.917C34.2061 296.773 36.8037 187.31 101.193 113.135C165.583 38.9604 273.597 21.0114 358.518 70.3702C358.432 71.6592 358.26 72.9326 358.26 74.2295C358.284 79.4833 359.006 84.7137 360.413 89.7761C365.928 112.346 386.229 128.166 409.459 128.006C413.314 127.963 417.154 127.49 420.904 126.596C446.841 161.549 460.79 203.946 460.661 247.469C460.615 293.352 445.134 337.882 416.713 373.897H416.705Z" fill="black"/>
<path d="M349.729 375.468H161.997C133.72 375.468 110.799 398.389 110.799 426.666C110.799 454.943 133.72 477.869 161.997 477.869H349.729C378.002 477.869 400.928 454.943 400.928 426.666C400.928 398.389 378.002 375.468 349.729 375.468V375.468ZM161.997 392.534H349.729C365.245 392.592 378.768 403.112 382.651 418.135H324.128C324.128 413.42 320.308 409.6 315.593 409.6C310.882 409.6 307.062 413.42 307.062 418.135H264.394V409.6C264.394 404.889 260.574 401.069 255.863 401.069C251.149 401.069 247.328 404.889 247.328 409.6V418.135H204.665C204.665 413.42 200.841 409.6 196.13 409.6C191.419 409.6 187.595 413.42 187.595 418.135H129.076C132.955 403.112 146.478 392.592 161.997 392.534V392.534ZM349.729 460.802H161.997C146.478 460.744 132.955 450.224 129.076 435.201H187.595C187.595 439.912 191.419 443.732 196.13 443.732C200.841 443.732 204.665 439.912 204.665 435.201H247.328V443.732C247.328 448.447 251.149 452.267 255.863 452.267C260.574 452.267 264.394 448.447 264.394 443.732V435.201H307.062C307.062 439.912 310.882 443.732 315.593 443.732C320.308 443.732 324.128 439.912 324.128 435.201H382.651C378.768 450.224 365.245 460.744 349.729 460.802Z" fill="black"/>
<path d="M181.001 286.793C181.118 286.953 181.317 287.012 181.442 287.168C182.048 287.844 182.755 288.422 183.544 288.875C183.825 289.035 184.091 289.199 184.395 289.336C185.454 289.828 186.602 290.094 187.767 290.117H187.989C188.579 290.109 189.169 290.039 189.747 289.914C190.157 289.813 190.524 289.633 190.923 289.523C191.036 289.481 191.153 289.461 191.266 289.41C218.985 282.063 238.41 257.149 238.789 228.477C239.164 199.806 220.395 174.392 192.88 166.318L199.954 162.779C202.704 161.431 204.52 158.709 204.716 155.65C204.907 152.592 203.442 149.666 200.884 147.982C198.321 146.299 195.055 146.119 192.325 147.514L149.853 168.744C147.654 169.697 145.509 170.771 143.427 171.959L106.99 190.177C103.459 191.951 101.604 195.915 102.51 199.763C103.416 203.611 106.846 206.333 110.799 206.341C112.119 206.341 113.424 206.028 114.603 205.435L114.912 205.29C110.6 216.622 109.646 228.954 112.162 240.813C108.896 240.626 105.607 240.473 102.256 240.473C97.5411 240.473 93.7209 244.294 93.7209 249.004C93.7209 253.719 97.5411 257.54 102.256 257.54C108.818 257.524 115.377 257.954 121.881 258.829C122.275 258.942 122.674 259.024 123.076 259.075C148.771 262.625 170.411 272.985 181.001 286.793ZM156.876 184.326C172.61 177.802 190.645 180.33 203.977 190.931C217.313 201.529 223.844 218.528 221.036 235.329C218.231 252.129 206.528 266.082 190.474 271.774C174.048 256.055 153.04 245.989 130.502 243.04C123.092 221.763 131.896 198.228 151.451 187.037L156.876 184.326Z" fill="black"/>
<path d="M409.459 240.473C406.107 240.473 402.822 240.626 399.553 240.813C402.068 228.954 401.115 216.622 396.807 205.29L397.111 205.435C398.295 206.032 399.604 206.341 400.928 206.341C404.889 206.349 408.338 203.626 409.248 199.771C410.158 195.915 408.295 191.939 404.748 190.169L368.311 171.951C366.233 170.763 364.088 169.689 361.889 168.736L319.417 147.502C316.687 146.111 313.421 146.291 310.859 147.975C308.296 149.658 306.835 152.584 307.027 155.642C307.218 158.701 309.038 161.42 311.788 162.771L318.862 166.31C291.316 174.388 272.535 199.841 272.941 228.544C273.351 257.247 292.847 282.156 320.612 289.445H320.706C321.151 289.566 321.558 289.762 321.995 289.871C322.64 290.023 323.296 290.102 323.956 290.102C325.124 290.078 326.273 289.809 327.327 289.316C327.628 289.18 327.89 289.02 328.183 288.856C328.968 288.402 329.675 287.828 330.28 287.149C330.409 286.996 330.604 286.938 330.726 286.774C341.315 272.969 362.956 262.61 388.615 259.059C389.014 259.012 389.408 258.926 389.791 258.809C396.311 257.942 402.881 257.516 409.459 257.54C414.174 257.54 417.994 253.719 417.994 249.004C417.994 244.294 414.174 240.473 409.459 240.473V240.473ZM321.288 271.774C305.156 266.145 293.367 252.184 290.519 235.341C287.671 218.493 294.218 201.435 307.605 190.818C320.991 180.205 339.093 177.716 354.846 184.326L360.276 187.037C379.838 198.224 388.643 221.774 381.217 243.051C358.69 246.001 337.698 256.063 321.288 271.774Z" fill="black"/>
<path d="M179.064 249.005C193.201 249.005 204.665 237.544 204.665 223.408C204.665 209.267 193.201 197.806 179.064 197.806C164.923 197.806 153.462 209.267 153.462 223.408C153.462 237.544 164.923 249.005 179.064 249.005ZM179.064 214.872C183.775 214.872 187.595 218.693 187.595 223.408C187.595 228.118 183.775 231.939 179.064 231.939C174.349 231.939 170.529 228.118 170.529 223.408C170.529 218.693 174.349 214.872 179.064 214.872Z" fill="black"/>
<path d="M332.663 197.806C318.523 197.806 307.062 209.267 307.062 223.408C307.062 237.544 318.523 249.005 332.663 249.005C346.8 249.005 358.261 237.544 358.261 223.408C358.261 209.267 346.8 197.806 332.663 197.806ZM332.663 231.939C327.949 231.939 324.128 228.118 324.128 223.408C324.128 218.693 327.949 214.872 332.663 214.872C337.374 214.872 341.195 218.693 341.195 223.408C341.195 228.118 337.374 231.939 332.663 231.939V231.939Z" fill="black"/>
</g>
<defs>
<clipPath id="clip0">
<rect width="512" height="512" fill="white"/>
</clipPath>
</defs>
</svg>
