<svg width="103" height="82" viewBox="0 0 103 82" fill="none" xmlns="http://www.w3.org/2000/svg">
<path d="M51.3569 11.7288L65.2164 19.6848V35.675L51.396 43.6799L37.5462 35.7434V19.763L51.3569 11.7288ZM51.3569 0L46.2744 2.93219L32.4344 10.9664L27.352 13.8986V41.6274L32.4344 44.5596L46.2939 52.5156L51.3764 55.4478L56.4589 52.5156L70.2695 44.5009L75.352 41.5687V13.8009L70.2695 10.8687L56.4198 2.93219L51.3373 0H51.3569Z" fill="white"/>
<path d="M0.0119755 72.5601C-0.0333266 71.4429 0.143036 70.3278 0.530889 69.2792C0.918742 68.2305 1.51041 67.2691 2.27175 66.4502C3.03309 65.6314 3.94904 64.9715 4.96674 64.5085C5.98444 64.0454 7.08375 63.7885 8.20125 63.7526H8.54847C12.8675 63.7526 15.4166 66.2932 16.1703 69.2657L13.4858 70.1634C13.2446 69.0557 12.6132 68.0716 11.7068 67.3907C10.8005 66.7098 9.67952 66.3773 8.54847 66.4541C5.75379 66.4541 2.95063 68.4951 2.95063 72.6109C2.95063 76.7267 5.68604 78.6914 8.58235 78.6914C9.71902 78.7225 10.8333 78.3714 11.7468 77.6943C12.6603 77.0172 13.3203 76.0533 13.6212 74.9567L16.255 75.8036C15.8004 77.4763 14.7892 78.9441 13.3882 79.9649C11.9871 80.9856 10.28 81.4983 8.54847 81.4184C6.32397 81.4592 4.17429 80.615 2.57196 79.0714C0.969634 77.5279 0.0457903 75.4112 0.00350816 73.1867C-0.00496058 72.9835 0.00350674 72.7718 0.0119755 72.5601Z" fill="white"/>
<path d="M21.4802 81.029H18.7025V63.7019H21.4802V70.4769C21.8835 69.9986 22.3907 69.6187 22.9631 69.3663C23.5354 69.1139 24.1579 68.9955 24.7831 69.0203C27.654 69.0203 29.0174 71.0782 29.0174 73.6442V81.029H26.3413V74.1354C26.4215 73.5477 26.2676 72.9521 25.9127 72.4769C25.5579 72.0016 25.0305 71.6848 24.4443 71.5948C24.2782 71.5777 24.1108 71.5777 23.9446 71.5948C23.3023 71.5948 22.6862 71.85 22.232 72.3042C21.7778 72.7584 21.5226 73.3745 21.5226 74.0168C21.5184 74.0873 21.5184 74.158 21.5226 74.2286L21.4802 81.029Z" fill="white"/>
<path d="M35.2504 74.3555L38.2314 73.8897C38.9089 73.8051 39.0783 73.4578 39.0783 73.0429C39.0783 72.0605 38.4177 71.2729 36.8764 71.2729C36.2943 71.2258 35.7171 71.4102 35.2701 71.7859C34.823 72.1616 34.5421 72.6985 34.4882 73.28V73.407L31.9476 72.8396C32.1593 70.8241 33.9886 69.0287 36.851 69.0287C40.4418 69.0287 41.8052 71.0612 41.8052 73.4324V79.2166C41.8023 79.8433 41.8504 80.4693 41.9492 81.0882H39.4086C39.317 80.5969 39.2801 80.0971 39.2985 79.5977C38.9128 80.1912 38.3784 80.6732 37.7483 80.9956C37.1183 81.3181 36.4147 81.4697 35.7077 81.4354C34.7422 81.5151 33.7844 81.2086 33.0446 80.5831C32.3047 79.9575 31.8432 79.0641 31.7613 78.0987C31.7613 78.0394 31.7613 77.9801 31.7613 77.9293C31.7189 75.7867 33.2518 74.635 35.2504 74.3555ZM39.0952 76.2271V75.6936L36.0549 76.1509C35.6422 76.164 35.2505 76.3361 34.9617 76.6312C34.6729 76.9263 34.5093 77.3216 34.5052 77.7346C34.5084 77.9392 34.5524 78.1411 34.6345 78.3285C34.7166 78.5159 34.8353 78.6851 34.9835 78.8263C35.1317 78.9674 35.3065 79.0775 35.4977 79.1504C35.6889 79.2232 35.8928 79.2572 36.0973 79.2505H36.2243C36.571 79.2867 36.9214 79.2541 37.2553 79.1544C37.5893 79.0546 37.9002 78.8898 38.1702 78.6694C38.4402 78.449 38.664 78.1774 38.8285 77.8701C38.9931 77.5629 39.0953 77.2261 39.1291 76.8792C39.1412 76.6609 39.127 76.442 39.0868 76.2271H39.0952Z" fill="white"/>
<path d="M46.5308 63.4647C46.7695 63.4613 47.0065 63.5052 47.2282 63.5937C47.4499 63.6822 47.652 63.8136 47.8227 63.9805C47.9935 64.1473 48.1296 64.3462 48.2233 64.5658C48.3169 64.7854 48.3663 65.0213 48.3685 65.2601C48.3685 65.6174 48.2628 65.9668 48.0647 66.2642C47.8667 66.5617 47.5852 66.794 47.2555 66.9319C46.9258 67.0697 46.5627 67.1071 46.2119 67.0392C45.861 66.9713 45.5381 66.8012 45.2836 66.5503C45.0292 66.2994 44.8546 65.9788 44.7819 65.6289C44.7091 65.2791 44.7414 64.9155 44.8747 64.5839C45.0079 64.2524 45.2363 63.9676 45.5309 63.7655C45.8256 63.5633 46.1735 63.4528 46.5308 63.4478V63.4647ZM45.1758 81.0797V69.3759H47.9535V81.0289L45.1758 81.0797Z" fill="white"/>
<path d="M54.2797 81.0289H51.5104V69.3759H54.2119V70.9257C54.5641 70.3306 55.07 69.8412 55.6764 69.5089C56.2829 69.1766 56.9676 69.0137 57.6587 69.0371C60.5042 69.0371 61.8931 71.095 61.8931 73.6611V81.0289H59.1238V74.1353C59.1238 72.7041 58.4717 71.5439 56.7272 71.5439C56.4046 71.5461 56.0857 71.6118 55.7886 71.7373C55.4915 71.8628 55.222 72.0455 54.9955 72.2752C54.769 72.5048 54.59 72.7768 54.4686 73.0756C54.3472 73.3744 54.2859 73.6942 54.2882 74.0168C54.2882 74.1099 54.2882 74.2031 54.2882 74.2962L54.2797 81.0289Z" fill="white"/>
<path d="M65.2467 81.029V63.7019H68.0245V81.029H65.2467Z" fill="white"/>
<path d="M72.9787 63.4647C73.3362 63.4631 73.6861 63.5676 73.984 63.7652C74.2819 63.9628 74.5145 64.2444 74.652 64.5744C74.7896 64.9043 74.826 65.2677 74.7567 65.6184C74.6874 65.9691 74.5154 66.2913 74.2626 66.5441C74.0099 66.7969 73.6877 66.9688 73.337 67.0382C72.9863 67.1075 72.6229 67.0711 72.2929 66.9335C71.963 66.7959 71.6813 66.5634 71.4838 66.2654C71.2862 65.9675 71.1816 65.6176 71.1833 65.2601C71.1877 64.7853 71.3783 64.3312 71.714 63.9955C72.0498 63.6597 72.5039 63.4692 72.9787 63.4647V63.4647ZM71.6152 81.0797V69.3759H74.3675V81.0289L71.6152 81.0797Z" fill="white"/>
<path d="M80.7361 81.0288H77.9583V69.3758H80.6598V70.9256C81.0127 70.3311 81.5187 69.8423 82.125 69.5101C82.7313 69.1779 83.4156 69.0145 84.1066 69.0371C86.9521 69.0371 88.341 71.095 88.341 73.661V81.0288H85.5632V74.1353C85.6434 73.5476 85.4895 72.952 85.1347 72.4768C84.7798 72.0015 84.2525 71.6847 83.6662 71.5947C83.4973 71.5777 83.3271 71.5777 83.1581 71.5947C82.5112 71.6013 81.893 71.863 81.4379 72.3229C80.9828 72.7828 80.7275 73.4036 80.7276 74.0506C80.7189 74.1492 80.7189 74.2484 80.7276 74.347L80.7361 81.0288Z" fill="white"/>
<path d="M97.8175 74.2963L102.704 81.0713H99.3165L95.929 76.2695L94.4978 77.777V81.029H91.7454V63.7019H94.4978V74.0846L98.9693 69.376H102.653L97.8175 74.2963Z" fill="white"/>
</svg>
