<svg id="Layer_1" enable-background="new 0 0 512 512" height="512" viewBox="0 0 512 512" width="512" xmlns="http://www.w3.org/2000/svg"><g><path d="m511.991 188.13c.06 1.24-.19 2.48-.75 3.61-53.752 109.55-118.985 190.31-164.236 238.77-49.142 52.63-85.083 78.96-86.593 80.06-1.31.95-2.86 1.43-4.41 1.43s-3.1-.48-4.41-1.43c-1.51-1.1-37.451-27.43-86.593-80.06-45.253-48.46-110.486-129.22-164.238-238.77-.56-1.14-.82-2.39-.75-3.63.02-.72.16-1.45.4-2.14 21.351-61.35 60.703-105.66 62.363-107.51 1.22-1.36 2.89-2.23 4.7-2.44.84-.1 85.233-9.95 188.527-9.95s187.687 9.85 188.527 9.95c1.81.21 3.48 1.08 4.7 2.44 0 0 0 0 .01.01 1.75 1.96 41.032 46.23 62.352 107.5.241.7.381 1.43.401 2.16z" fill="#00a3a8"/><path d="m511.991 188.13c.06 1.24-.19 2.48-.75 3.61-53.752 109.55-118.985 190.31-164.236 238.77-49.142 52.63-85.083 78.96-86.593 80.06-1.31.95-2.86 1.43-4.41 1.43 145.615-156.42 220.788-320.19 220.788-320.19-5.21-54.51-27.211-112.44-27.551-113.34 1.75 1.96 41.032 46.23 62.352 107.5.24.7.38 1.43.4 2.16z" fill="#057f8e"/><path d="m352.208 199.696s-23.878 148.207-96.207 312.304c-72.329-164.097-96.207-312.304-96.207-312.304z" fill="#81ebeb"/><path d="m511.991 188.13-.4.31s-12.76 1.44-34.801 3.37c-44.912 3.94-128.355 9.93-220.789 9.93-137.795 0-255.59-13.3-255.59-13.3l-.4-.33c.02-.72.16-1.45.4-2.14 21.351-61.35 60.703-105.66 62.363-107.51 1.22-1.36 2.89-2.23 4.7-2.44.84-.1 85.233-9.95 188.527-9.95s187.687 9.85 188.527 9.95c1.81.21 3.48 1.08 4.7 2.44 0 0 0 0 .01.01 1.75 1.96 41.032 46.23 62.352 107.5.241.7.381 1.43.401 2.16z" fill="#00cec8"/><path d="m256.001 66.07s-62.002 70.56-96.204 133.63c-37.651-63.07-97.023-121.24-97.023-121.24 1.22-1.36 2.89-2.23 4.7-2.44.84-.1 85.233-9.95 188.527-9.95z" fill="#81ebeb"/><path d="m449.229 78.46s-59.372 58.17-97.024 121.24c-34.201-63.07-96.204-133.63-96.204-133.63 103.294 0 187.687 9.85 188.527 9.95 1.811.21 3.481 1.08 4.701 2.44z" fill="#81ebeb"/><g fill="#fff18d"><path d="m70.769 362.638c4.021-.996 6.472-5.063 5.476-9.083-.996-4.021-5.063-6.474-9.084-5.476l-39.89 9.882c-4.021.996-6.472 5.063-5.476 9.083.846 3.415 3.907 5.698 7.274 5.698.597 0 1.204-.072 1.81-.222z"/><path d="m97.519 400.691-64.539 37.1c-3.591 2.064-4.829 6.649-2.764 10.24 1.387 2.413 3.912 3.764 6.509 3.764 1.268 0 2.553-.322 3.731-1l64.539-37.1c3.591-2.064 4.829-6.649 2.764-10.24-2.064-3.591-6.649-4.829-10.24-2.764z"/><path d="m141.621 449.524c-3.263-2.553-7.976-1.978-10.529 1.284l-18.046 23.057c-2.553 3.262-1.978 7.976 1.284 10.529 1.372 1.074 3.001 1.594 4.617 1.594 2.228 0 4.433-.988 5.912-2.878l18.046-23.057c2.553-3.262 1.978-7.976-1.284-10.529z"/><path d="m484.73 354.7-39.89-9.881c-4.017-.998-8.088 1.456-9.083 5.477-.996 4.021 1.456 8.087 5.477 9.083l39.89 9.881c.605.15 1.212.222 1.809.222 3.367 0 6.428-2.284 7.274-5.699.996-4.021-1.456-8.087-5.477-9.083z"/><path d="m479.022 434.531-64.539-37.101c-3.59-2.064-8.177-.827-10.24 2.764-2.065 3.591-.827 8.175 2.764 10.24l64.539 37.101c1.178.677 2.463 1 3.731 1 2.597 0 5.122-1.351 6.509-3.764 2.065-3.591.828-8.175-2.764-10.24z"/><path d="m380.91 447.548c-2.553-3.262-7.266-3.838-10.529-1.284-3.262 2.553-3.837 7.267-1.284 10.529l18.046 23.057c1.48 1.89 3.684 2.878 5.912 2.878 1.616 0 3.245-.521 4.617-1.594 3.262-2.553 3.837-7.267 1.284-10.529z"/><path d="m256.001 0c-4.142 0-7.5 3.358-7.5 7.5v28.165c0 4.142 3.358 7.5 7.5 7.5s7.5-3.358 7.5-7.5v-28.165c.001-4.142-3.358-7.5-7.5-7.5z"/><path d="m172.459 23.232c-2.096-3.573-6.691-4.771-10.264-2.676s-4.771 6.69-2.676 10.264l9.083 15.489c1.397 2.381 3.902 3.707 6.477 3.707 1.289 0 2.595-.332 3.787-1.031 3.573-2.095 4.771-6.69 2.676-10.264z"/><path d="m349.808 20.557c-3.573-2.095-8.169-.897-10.264 2.676l-9.083 15.489c-2.095 3.573-.897 8.168 2.676 10.264 1.192.699 2.498 1.031 3.787 1.031 2.574 0 5.081-1.326 6.477-3.707l9.083-15.489c2.095-3.574.897-8.169-2.676-10.264z"/></g><circle cx="253.046" cy="391.873" fill="#00cec8" r="7.5"/><circle cx="379.831" cy="99.873" fill="#00cec8" r="7.5"/><circle cx="76.449" cy="228.203" fill="#057f8e" r="7.5"/><circle cx="131.721" cy="106.153" fill="#00cec8" r="7.5"/><circle cx="425.553" cy="232.343" fill="#057f8e" r="7.5"/><path d="m511.991 188.13-.4.31s-12.76 1.44-34.801 3.37c-5.21-54.51-27.211-112.44-27.551-113.34 1.75 1.96 41.032 46.23 62.352 107.5.24.7.38 1.43.4 2.16z" fill="#00a3a8"/></g></svg>