<svg width="512" height="512" viewBox="0 0 512 512" fill="none" xmlns="http://www.w3.org/2000/svg">
<g clip-path="url(#clip0)">
<path d="M486.337 298.71C486.337 411.755 383.19 503.467 255.984 503.467C251.72 503.467 247.451 503.385 243.186 503.127C121.952 497.242 25.6315 407.915 25.6315 298.71C25.6315 277.32 29.3885 256.094 36.7191 236C40.2575 226.393 42.468 216.348 43.2881 206.139C51.1499 99.6483 136.594 15.4071 243.186 9.06071C247.451 8.71702 251.72 8.6311 255.984 8.6311C367.622 8.63501 460.374 94.7274 468.677 206.057C469.493 216.235 471.703 226.252 475.246 235.832C482.576 255.985 486.329 277.265 486.337 298.71V298.71Z" fill="#BF8608"/>
<path d="M460.745 298.71C460.745 407.915 364.42 497.242 243.186 503.127C121.952 497.242 25.6315 407.915 25.6315 298.71C25.6315 277.32 29.3885 256.094 36.7191 236C40.2575 226.393 42.468 216.348 43.2881 206.139C51.1499 99.6482 136.594 15.4071 243.186 9.06067C349.751 15.3993 435.187 99.5975 443.084 206.057C443.896 216.235 446.107 226.252 449.653 235.832C456.98 255.985 460.733 277.265 460.745 298.71V298.71Z" fill="#FEB20A"/>
<path d="M253.7 137.039C240.757 95.2898 199.171 71.0797 160.82 82.9719C122.464 94.8602 101.866 138.348 114.809 180.097C127.752 221.851 169.337 246.057 207.689 234.169C246.045 222.276 266.646 178.793 253.7 137.039Z" fill="white"/>
<path d="M394.965 186.346C382.608 220.726 347.634 241.538 311.524 236C307.08 235.137 302.733 233.825 298.558 232.075C276.285 222.479 260.3 202.362 255.984 178.496V146.077C257.047 140.839 258.558 135.7 260.507 130.72C270.103 105.436 291.895 86.7641 318.351 81.1519C331.313 78.668 344.717 80.035 356.914 85.0769C394.027 100.433 411.09 145.737 394.965 186.346V186.346Z" fill="#CFD8DC"/>
<path d="M369.368 186.346C359.804 211.669 338.007 230.384 311.524 236C307.08 235.137 302.733 233.825 298.558 232.075C276.285 222.48 260.3 202.362 255.984 178.496V146.077C257.047 140.839 258.558 135.7 260.507 130.72C270.103 105.436 291.895 86.7641 318.351 81.152C322.795 82.0151 327.142 83.3312 331.317 85.077C368.431 100.433 385.494 145.737 369.368 186.346Z" fill="white"/>
<path d="M221.858 174.907C221.858 191.4 208.49 204.768 191.997 204.768C175.504 204.768 162.136 191.4 162.136 174.907C162.136 158.414 175.504 145.046 191.997 145.046C208.49 145.046 221.858 158.414 221.858 174.907Z" fill="#51FF41"/>
<path d="M341.299 175.001C341.299 191.493 327.931 204.862 311.438 204.862C294.949 204.862 281.581 191.493 281.581 175.001C281.581 158.508 294.949 145.139 311.438 145.139C327.931 145.139 341.299 158.508 341.299 175.001Z" fill="#51FF41"/>
<path d="M449.907 292.735C441.975 342.475 406.908 469.341 255.984 469.341C252.001 469.341 248.08 469.255 244.209 469.087C103.183 462.686 69.822 341.198 62.0579 292.735C61.2807 287.826 62.6945 282.819 65.9282 279.042C69.1659 275.266 73.8954 273.098 78.8671 273.114H433.102C438.073 273.098 442.803 275.266 446.041 279.042C449.274 282.819 450.688 287.826 449.907 292.735V292.735Z" fill="#CFD8DC"/>
<path d="M426.361 292.735C418.597 341.198 385.24 462.686 244.209 469.087C103.183 462.686 69.822 341.198 62.0579 292.735C61.2807 287.826 62.6945 282.819 65.9282 279.042C69.1659 275.266 73.8954 273.098 78.8671 273.114H409.556C414.527 273.098 419.257 275.266 422.491 279.042C425.728 282.819 427.142 287.826 426.361 292.735V292.735Z" fill="white"/>
<path d="M255.984 512C387.704 512 494.871 416.316 494.871 298.71C494.879 276.274 490.95 254.012 483.26 232.938C479.975 224.085 477.937 214.821 477.202 205.409C468.606 89.5721 372.106 -0.0195241 255.953 3.19151e-06C139.8 0.0195305 43.3273 89.6385 34.7665 205.475C34.0244 214.891 31.9818 224.159 28.7012 233.016C21.0114 254.063 17.0824 276.301 17.0981 298.71C17.0981 416.316 124.264 512 255.984 512V512ZM44.7332 238.894C48.5567 228.549 50.9273 217.727 51.7787 206.729C59.6483 99.7733 148.705 17.0123 255.949 16.9927C363.19 16.9693 452.282 99.703 460.19 206.651C461.038 217.637 463.404 228.451 467.228 238.781C474.238 257.984 477.816 278.269 477.808 298.71C477.808 406.908 378.304 494.937 255.984 494.937C133.665 494.937 34.1611 406.908 34.1611 298.71C34.1533 278.304 37.7307 258.058 44.7332 238.894V238.894Z" fill="black"/>
<path d="M156.93 239.378C166.682 243.546 177.172 245.705 187.775 245.737C197.703 245.74 207.533 243.78 216.703 239.976C233.7 232.817 247.615 219.878 255.984 203.444C264.393 219.832 278.281 232.751 295.231 239.96C304.428 243.768 314.285 245.721 324.237 245.709C334.82 245.682 345.287 243.526 355.02 239.371C376.96 229.763 394.18 211.821 402.873 189.506C420.671 144.686 401.518 94.3095 360.163 77.2035C340.991 69.3378 319.456 69.5487 300.444 77.7893C281.097 86.2095 265.35 101.195 255.984 120.097C246.654 101.191 230.939 86.1861 211.618 77.7385C192.587 69.4824 171.025 69.2636 151.829 77.1332C110.47 94.2392 91.3138 144.643 109.119 189.494C117.797 211.814 135 229.763 156.93 239.378ZM307.088 93.4893C321.901 87.0375 338.691 86.8422 353.645 92.9504C386.423 106.518 401.424 146.99 387.013 183.19C380.022 201.281 366.115 215.836 348.365 223.647C333.559 230.087 316.781 230.283 301.835 224.186C282.635 215.805 268.759 198.551 264.694 178.004C266.502 167.592 266.502 156.942 264.694 146.53C265.596 142.21 266.861 137.977 268.474 133.868C275.477 115.821 289.365 101.296 307.08 93.4971L307.088 93.4893ZM158.332 92.9269C165.444 89.9822 173.063 88.4747 180.761 88.4786C189.08 88.5059 197.308 90.2048 204.955 93.4698C222.686 101.285 236.578 115.833 243.561 133.903C257.957 170.127 242.991 210.638 210.204 224.202C195.227 230.318 178.414 230.119 163.585 223.655C145.854 215.848 131.958 201.3 124.971 183.225C110.572 147.006 125.545 106.498 158.324 92.9347L158.332 92.9269Z" fill="black"/>
<path d="M191.997 204.768C208.49 204.768 221.858 191.4 221.858 174.907C221.858 158.414 208.49 145.046 191.997 145.046C175.504 145.046 162.136 158.414 162.136 174.907C162.136 182.827 165.284 190.419 170.88 196.02C176.481 201.62 184.077 204.768 191.997 204.768ZM191.997 162.109C199.066 162.109 204.795 167.838 204.795 174.907C204.795 181.976 199.066 187.705 191.997 187.705C184.928 187.705 179.199 181.976 179.199 174.907C179.199 167.838 184.928 162.109 191.997 162.109Z" fill="black"/>
<path d="M311.438 204.862C327.931 204.862 341.299 191.493 341.299 175.001C341.299 158.508 327.931 145.139 311.438 145.139C294.949 145.139 281.581 158.508 281.581 175.001C281.581 191.493 294.949 204.862 311.438 204.862V204.862ZM311.438 162.202C318.507 162.202 324.236 167.932 324.236 175.001C324.236 182.069 318.507 187.799 311.438 187.799C304.373 187.799 298.644 182.069 298.644 175.001C298.644 167.932 304.373 162.202 311.438 162.202V162.202Z" fill="black"/>
<path d="M255.984 477.874C323.854 477.874 376.808 453.293 413.395 404.826C436.906 371.977 452.321 334.036 458.37 294.094C459.534 286.705 457.398 279.179 452.531 273.501C447.665 267.822 440.553 264.565 433.074 264.581H78.8944C71.3724 264.573 64.2254 267.869 59.3553 273.598C54.5281 279.253 52.423 286.736 53.5947 294.075C59.6482 334.02 75.0592 371.966 98.5741 404.818C135.161 453.293 188.115 477.874 255.984 477.874V477.874ZM72.3488 284.666C73.9774 282.741 76.3714 281.636 78.8944 281.647H433.074C435.597 281.636 437.991 282.741 439.62 284.666C441.225 286.514 441.92 288.982 441.522 291.396C433.375 342.331 398.991 460.811 255.984 460.811C112.977 460.811 78.5936 342.331 70.4468 291.388C70.0485 288.978 70.7475 286.514 72.3488 284.666V284.666Z" fill="black"/>
<path d="M213.325 366.963H290.11V392.555C290.11 397.269 293.93 401.089 298.644 401.089C303.354 401.089 307.173 397.269 307.173 392.555V366.963H341.3V375.492C341.3 380.206 345.119 384.026 349.833 384.026C354.543 384.026 358.363 380.206 358.363 375.492V366.963H383.959C388.669 366.963 392.489 363.143 392.489 358.429C392.489 353.719 388.669 349.9 383.959 349.9H358.363V341.366C358.363 336.656 354.543 332.836 349.833 332.836C345.119 332.836 341.3 336.656 341.3 341.366V349.9H307.173V324.303C307.173 319.593 303.354 315.773 298.644 315.773C293.93 315.773 290.11 319.593 290.11 324.303V349.9H213.325C208.615 349.9 204.795 353.719 204.795 358.429C204.795 363.143 208.615 366.963 213.325 366.963V366.963Z" fill="black"/>
</g>
<defs>
<clipPath id="clip0">
<rect width="512" height="512" fill="white"/>
</clipPath>
</defs>
</svg>
