<svg width="512" height="512" viewBox="0 0 512 512" fill="none" xmlns="http://www.w3.org/2000/svg">
<g clip-path="url(#clip0)">
<path d="M496.994 466.009H346V436.009L391 391.009V361.009C391 352.718 397.709 346.009 406 346.009H496.994C502.531 346.009 507.599 349.056 510.207 353.934C512.844 358.812 512.551 364.73 509.475 369.33L485.012 406.01L509.475 442.69C512.551 447.29 512.844 453.208 510.207 458.086C507.599 462.962 502.531 466.009 496.994 466.009V466.009Z" fill="#C10906"/>
<path d="M166 466.009H15.006C9.46899 466.009 4.40099 462.962 1.79299 458.084C-0.844008 453.206 -0.551008 447.288 2.52499 442.688L26.988 406.008L2.52499 369.328C-0.551008 364.728 -0.844008 358.81 1.79299 353.932C4.39999 349.054 9.46899 346.007 15.006 346.007H106C114.291 346.007 121 352.716 121 361.007V391.007L166 436.007V466.009Z" fill="#F94947"/>
<path d="M406 376.009H346C337.599 376.009 331 382.608 331 391.009V451.009C331 459.408 337.599 466.009 346 466.009C382.301 466.009 412.599 440.209 419.5 406.009L406 376.009Z" fill="#450302"/>
<path d="M166 376.009H106L92.5 406.009C99.401 440.209 129.7 466.009 166 466.009C174.401 466.009 181 459.408 181 451.009V391.009C181 382.608 174.401 376.009 166 376.009Z" fill="#401817"/>
<path d="M406 286.009H338.8C328.561 286.009 322.413 295.546 324.1 303.408L324.4 304.909L262.899 272.809C258.7 270.408 253.299 270.408 249.1 272.809L187.599 304.909L187.899 303.408C189.597 295.495 183.372 286.009 173.199 286.009H106C97.599 286.009 91 292.608 91 301.009V391.009C91 396.108 91.601 401.208 92.5 406.009H419.5C420.399 401.208 421 396.108 421 391.009V301.009C421 292.608 414.401 286.009 406 286.009V286.009Z" fill="#FA6D6B"/>
<path d="M419.5 406.009C420.399 401.208 421 396.108 421 391.009V301.009C421 292.608 414.401 286.009 406 286.009H338.8C328.561 286.009 322.414 295.545 324.1 303.408L324.4 304.909L262.899 272.809C260.801 271.608 258.398 271.009 256 271.009V406.009H419.5Z" fill="#F94947"/>
<path d="M256 211.009L204.397 257.621L168.4 239.209L102.7 175.309C98.5 171.409 97.3 165.408 98.8 159.708C100.6 154.308 105.399 150.408 111.099 149.807L202 136.607L255.227 136.408L256 211.009Z" fill="#FEB20A"/>
<path d="M409.3 175.309L343.6 239.209L302.594 256.008L256 211.009L255.227 136.409L310 136.608L400.901 149.808C406.601 150.409 411.4 154.309 413.2 159.709C414.699 165.408 413.5 171.409 409.3 175.309V175.309Z" fill="#FAAB00"/>
<path d="M358.9 329.808C360.099 335.508 357.701 341.208 352.9 344.51C349.153 347.788 342.469 348.661 337.301 345.709L256 303.109V211.009L343.599 239.209L358.9 329.808Z" fill="#FEB20A"/>
<path d="M256 211.009V303.109L174.699 345.708C169.6 348.407 163.599 348.109 159.1 344.509C154.299 341.208 151.9 335.508 153.1 329.807L168.4 239.208L256 211.009Z" fill="#FECE67"/>
<path d="M159.936 104.31L134.887 69.828C130.024 63.119 131.489 53.744 138.198 48.881C144.878 44.047 154.282 45.453 159.145 52.192L184.194 86.674C189.057 93.383 187.592 102.758 180.883 107.621C174.146 112.507 164.78 110.996 159.936 104.31Z" fill="#FECE67"/>
<path d="M336.918 108.338C330.326 103.343 329.008 93.939 333.988 87.332L360.736 51.971C365.716 45.321 375.121 44.032 381.742 49.041C388.334 54.036 389.652 63.44 384.672 70.047L357.924 105.408C352.968 112.025 343.551 113.33 336.918 108.338Z" fill="#FEB20A"/>
<path d="M310 136.608L256 211.009L202 136.608L242.499 54.408C247.598 44.209 264.4 44.209 269.5 54.408L310 136.608Z" fill="#FECE67"/>
<path d="M310 136.608L269.501 54.408C266.951 49.309 261.476 46.759 256.001 46.759V211.009L310 136.608Z" fill="#FEB20A"/>
</g>
<defs>
<clipPath id="clip0">
<rect width="512" height="512" fill="white"/>
</clipPath>
</defs>
</svg>
