<svg width="512" height="513" viewBox="0 0 512 513" fill="none" xmlns="http://www.w3.org/2000/svg">
<path d="M319.997 277.336C308.2 277.336 298.665 286.894 298.665 298.668V384.003C298.665 395.756 289.106 405.334 277.329 405.334H213.33V85.3377C213.33 67.1192 201.724 50.842 184.275 44.7835L177.959 42.6702H277.329C289.106 42.6702 298.665 52.2482 298.665 64.0059V128.005C298.665 139.779 308.2 149.337 319.997 149.337C331.793 149.337 341.328 139.779 341.328 128.005V64.0059C341.328 28.7211 312.614 0.0065918 277.329 0.0065918H47.9995C47.187 0.0065918 46.5073 0.36987 45.7183 0.475337C44.6909 0.389401 43.7105 0.0065918 42.6675 0.0065918C19.1365 0.0065918 0 19.1392 0 42.6702V426.666C0 444.885 11.6053 461.162 29.0544 467.22L157.44 510.017C161.791 511.361 166.119 512.001 170.666 512.001C194.197 512.001 213.33 492.865 213.33 469.334V448.002H277.329C312.614 448.002 341.328 419.287 341.328 384.003V298.668C341.328 286.894 331.793 277.336 319.997 277.336Z" fill="black"/>
<path d="M505.745 198.255L420.41 112.923C414.312 106.822 405.136 104.986 397.16 108.291C389.203 111.599 383.996 119.384 383.996 128.005V192.005H298.665C286.888 192.005 277.329 201.559 277.329 213.336C277.329 225.114 286.888 234.668 298.665 234.668H383.996V298.668C383.996 307.289 389.203 315.074 397.16 318.382C405.136 321.687 414.312 319.851 420.41 313.753L505.745 228.418C514.084 220.079 514.084 206.594 505.745 198.255Z" fill="black"/>
</svg>
