<svg width="512" height="476" viewBox="0 0 512 476" fill="none" xmlns="http://www.w3.org/2000/svg">
<path d="M469.332 221.868C469.332 278.446 446.859 332.707 406.852 372.715C366.844 412.723 312.578 435.2 256 435.2C251.734 435.2 247.469 435.114 243.199 434.774C130.574 428.008 42.7031 334.696 42.7031 221.868C42.7031 109.039 130.574 15.7269 243.199 8.9613C247.469 8.61755 251.734 8.53552 256 8.53552C312.578 8.53552 366.844 31.0121 406.852 71.0199C446.859 111.024 469.332 165.289 469.332 221.868V221.868Z" fill="#BF8608"/>
<path d="M443.734 221.868C443.734 104.282 353.953 8.9613 243.199 8.9613C132.449 8.9613 42.668 104.282 42.668 221.868C42.668 339.453 132.449 434.774 243.199 434.774C353.953 434.774 443.734 339.453 443.734 221.868Z" fill="#FEB20A"/>
<path d="M238.933 174.934C239.398 200.781 224.242 224.36 200.535 234.668C180.387 218.633 155.281 210.125 129.535 210.602C122.929 199.879 119.441 187.528 119.469 174.934C119.469 139.606 154.711 102.403 187.734 102.403C220.758 102.403 238.933 139.606 238.933 174.934Z" fill="white"/>
<path d="M392.535 174.934C392.558 187.528 389.07 199.879 382.464 210.602C375.054 210.59 367.656 211.25 360.363 212.567C350.39 214.262 340.707 217.367 331.605 221.782C324.382 225.227 317.621 229.555 311.468 234.668C308.996 233.645 306.601 232.446 304.3 231.082C284.636 219.262 272.738 197.875 273.066 174.934C273.066 149.93 282.199 123.989 299.179 110.934C306.347 105.356 315.183 102.352 324.265 102.403C357.293 102.403 392.535 139.606 392.535 174.934V174.934Z" fill="#CFD8DC"/>
<path d="M366.933 183.469C366.953 193.535 364.707 203.481 360.363 212.567C359.332 214.824 358.164 217.02 356.863 219.137C348.375 219.125 339.91 220.012 331.605 221.781C322.117 223.606 312.925 226.735 304.3 231.082C284.636 219.262 272.738 197.875 273.066 174.934C273.066 149.93 282.199 123.989 299.179 110.934C332.031 111.36 366.933 148.309 366.933 183.469V183.469Z" fill="white"/>
<path d="M413.355 365.996L413.269 366.082" stroke="black" stroke-width="17.0666" stroke-linecap="round" stroke-linejoin="round"/>
<path d="M98.7303 366.082L98.6444 365.996" stroke="black" stroke-width="17.0666" stroke-linecap="round" stroke-linejoin="round"/>
<path d="M73.9414 306.082L48.3398 261.711C42.4101 251.594 29.4258 248.16 19.2695 254.023C9.11716 259.887 5.59763 272.848 11.3906 283.043L98.8594 434.543C104.645 443.762 112.184 451.754 121.047 458.07C137.145 468.969 158.09 469.59 174.805 459.664L180.445 456.406C188.609 451.691 191.406 441.254 186.691 433.094L165.359 396.144L112.035 303.785C106.027 293.844 93.1679 290.535 83.1054 296.344C73.0469 302.156 69.4844 314.945 75.0937 325.121L115.629 395.324" fill="#FEB20A"/>
<path d="M500.566 283.051L413.097 434.602C407.335 443.793 399.828 451.766 390.996 458.07C374.886 469.023 353.89 469.656 337.152 459.691L331.519 456.449C330.085 455.598 328.765 454.562 327.593 453.375C322.492 447.863 321.562 439.672 325.292 433.152L346.624 396.203L399.956 303.785C402.796 298.879 407.456 295.293 412.929 293.805C413.121 293.734 413.324 293.703 413.527 293.719C413.609 293.633 413.695 293.633 413.867 293.633C419.078 292.469 424.535 293.324 429.14 296.023C433.097 298.344 436.206 301.875 438.015 306.09L463.617 261.719C466.476 256.828 471.128 253.246 476.585 251.734C476.843 251.648 477.015 251.648 477.269 251.562C485.546 249.68 494.156 252.871 499.206 259.695C504.253 266.52 504.788 275.687 500.566 283.051V283.051Z" fill="#BF8608"/>
<path d="M476.246 270.934L388.777 422.484C383.015 431.676 375.507 439.648 366.675 445.953C355.289 453.848 341.085 456.547 327.593 453.375C322.492 447.863 321.562 439.672 325.292 433.152L346.624 396.203L399.956 303.785C402.796 298.879 407.456 295.293 412.929 293.805C413.121 293.734 413.324 293.703 413.527 293.719C413.609 293.805 413.695 293.887 413.695 293.973L413.867 293.633C419.078 292.469 424.535 293.324 429.14 296.023C433.097 298.344 436.206 301.875 438.015 306.09L463.617 261.719C466.476 256.828 471.128 253.246 476.585 251.734C476.843 251.648 477.015 251.648 477.269 251.562C480.054 257.812 479.671 265.016 476.246 270.934V270.934Z" fill="#FEB20A"/>
<path d="M187.734 132.266C187.734 144.051 178.183 153.602 166.398 153.602C154.617 153.602 145.066 144.051 145.066 132.266C145.066 120.485 154.617 110.934 166.398 110.934C178.183 110.934 187.734 120.485 187.734 132.266Z" fill="#00BCD4"/>
<path d="M332.8 132.266C332.8 144.051 323.25 153.602 311.468 153.602C299.683 153.602 290.132 144.051 290.132 132.266C290.132 120.485 299.683 110.934 311.468 110.934C323.25 110.934 332.8 120.485 332.8 132.266V132.266Z" fill="#00BCD4"/>
<path d="M497.066 246.536C490.934 243.004 483.734 241.793 476.785 243.125C477.449 236.168 477.867 229.086 477.867 221.868C477.867 99.3324 378.535 0.000366211 256 0.000366211C133.469 0.000366211 34.1328 99.3324 34.1328 221.868C34.1328 229.063 34.5508 236.145 35.2266 243.133C28.2695 241.797 21.0664 243.008 14.9336 246.547C0.656247 254.793 -4.23828 273.051 4.0039 287.336L91.4688 438.836C97.875 449.114 106.246 458.028 116.105 465.067C125.695 471.746 137.109 475.297 148.797 475.239C159.43 475.223 169.871 472.407 179.074 467.075L184.73 463.813C194.5 458.098 199.355 446.649 196.676 435.653C235.484 446.395 276.48 446.395 315.289 435.653C312.59 446.649 317.453 458.114 327.238 463.813L332.887 467.075C342.086 472.407 352.527 475.223 363.16 475.239C374.863 475.305 386.297 471.754 395.895 465.067C405.754 458.028 414.125 449.11 420.531 438.828L508 287.328C516.238 273.043 511.348 254.786 497.066 246.536V246.536ZM176.215 449.043L170.539 452.266C156.691 460.547 139.309 460.082 125.926 451.075C118.094 445.453 111.414 438.387 106.242 430.25L18.7734 278.801C16.4883 274.84 16.4883 269.957 18.7773 265.996C21.0664 262.032 25.2969 259.594 29.8711 259.594C34.4453 259.598 38.6758 262.039 40.9609 266L64.7695 307.243C62.8008 314.739 63.8555 322.703 67.7031 329.43L108.238 399.633C109.75 402.297 112.574 403.942 115.637 403.95C118.699 403.957 121.531 402.321 123.055 399.668C124.582 397.012 124.566 393.743 123.016 391.102L82.4766 320.856C80.1875 316.891 80.1914 312.008 82.4805 308.047C84.7695 304.086 88.9961 301.645 93.5742 301.649C98.1484 301.649 102.375 304.09 104.66 308.055L157.996 400.426L179.328 437.375C180.461 439.34 180.766 441.672 180.176 443.86C179.59 446.047 178.152 447.914 176.188 449.043H176.215ZM185.602 414.055L172.801 391.911L119.469 299.52C115.52 292.633 108.984 287.61 101.316 285.559C93.6484 283.508 85.4766 284.602 78.6172 288.598C77.3867 289.309 76.2109 290.11 75.0938 290.989L55.7305 257.469C55.207 256.637 54.6367 255.836 54.0234 255.071C52.1523 244.102 51.207 232.996 51.1992 221.868C51.1992 108.758 142.891 17.0668 256 17.0668C369.109 17.0668 460.801 108.758 460.801 221.868C460.805 232.996 459.867 244.102 457.992 255.071C457.383 255.84 456.813 256.641 456.285 257.469L436.906 290.989C435.793 290.094 434.621 289.278 433.391 288.547C426.527 284.567 418.363 283.485 410.703 285.547C403.039 287.606 396.516 292.637 392.578 299.52L339.242 391.895L326.441 414.039C280.945 430.641 231.043 430.645 185.539 414.047L185.602 414.055ZM493.227 278.801L405.75 430.301C400.59 438.418 393.93 445.473 386.125 451.09C372.742 460.098 355.359 460.563 341.512 452.286L335.871 449.024C333.91 447.895 332.48 446.032 331.891 443.844C331.305 441.661 331.609 439.328 332.742 437.368L354.074 400.418L407.355 308.055C409.777 303.86 414.355 301.391 419.191 301.676C424.027 301.957 428.285 304.946 430.199 309.395C431.797 313.106 431.547 317.356 429.527 320.856L388.992 391.059C386.676 395.137 388.082 400.321 392.145 402.664C396.207 405.012 401.398 403.637 403.773 399.59L444.305 329.379C448.145 322.668 449.199 314.715 447.242 307.235L471.051 265.993C472.746 263.059 475.535 260.911 478.805 260.02C483.812 258.668 489.137 260.469 492.297 264.582C495.453 268.696 495.816 274.305 493.219 278.793L493.227 278.801Z" fill="black"/>
<path d="M206.773 252.938C209.793 256.563 215.18 257.051 218.805 254.028C222.43 251.008 222.918 245.621 219.894 241.996C218.273 240.059 216.586 238.313 214.914 236.543C235.371 222.735 247.586 199.617 247.469 174.934C247.469 135.68 226.535 93.8674 187.734 93.8674C149.691 93.8674 110.933 134.778 110.933 174.934C110.976 184.426 112.785 193.828 116.266 202.66C113.902 202.871 111.676 203.102 109.781 203.36C105.109 203.996 101.84 208.297 102.476 212.969C103.113 217.637 107.414 220.906 112.086 220.27C130.297 217.781 176.035 216.024 206.773 252.938ZM179.199 132.266C179.199 139.336 173.469 145.067 166.398 145.067C159.332 145.067 153.601 139.336 153.601 132.266C153.601 125.199 159.332 119.469 166.398 119.469C173.469 119.469 179.199 125.199 179.199 132.266ZM138.512 142.696C142.801 154.137 153.637 161.805 165.851 162.039C178.07 162.274 189.191 155.028 193.914 143.758C198.641 132.492 196.008 119.481 187.273 110.934H187.734C215.449 110.934 230.398 143.906 230.398 174.934C230.644 195.555 219.551 214.641 201.516 224.641C182.055 210.559 158.766 202.746 134.75 202.242C130.348 193.809 128.031 184.446 128 174.934C128.379 163.406 132.023 152.227 138.512 142.696Z" fill="black"/>
<path d="M399.914 220.27C402.937 220.684 405.949 219.453 407.816 217.039C409.683 214.629 410.121 211.406 408.964 208.586C407.812 205.762 405.242 203.77 402.218 203.36C400.324 203.102 398.105 202.871 395.734 202.66C399.214 193.828 401.023 184.426 401.066 174.934C401.066 134.778 362.308 93.8674 324.265 93.8674C285.464 93.8674 264.535 135.637 264.535 174.934C264.414 199.625 276.632 222.742 297.097 236.555C295.39 238.313 293.683 240.059 292.105 241.996C289.085 245.621 289.574 251.008 293.195 254.028C296.82 257.051 302.207 256.563 305.23 252.938C335.976 216.031 381.703 217.789 399.914 220.27V220.27ZM324.265 132.266C324.265 139.336 318.535 145.067 311.468 145.067C304.398 145.067 298.668 139.336 298.668 132.266C298.668 125.199 304.398 119.469 311.468 119.469C318.535 119.469 324.265 125.199 324.265 132.266ZM281.601 174.934C281.593 165.504 282.972 156.125 285.695 147.098C291.347 157.094 302.242 162.946 313.695 162.141C325.148 161.336 335.117 154.016 339.312 143.328C343.507 132.641 341.183 120.492 333.339 112.114C361.582 120.574 381.71 145.539 384 174.934C383.968 184.446 381.652 193.813 377.242 202.242C353.234 202.762 329.949 210.582 310.496 224.656C292.449 214.66 281.351 195.563 281.601 174.934V174.934Z" fill="black"/>
<path d="M165.265 76.2034C165.64 76.0511 203.109 61.6956 224.375 82.8519C227.719 86.18 233.125 86.1683 236.449 82.8245C239.777 79.4847 239.765 74.0784 236.426 70.7503C207.191 41.6527 160.922 59.5628 158.984 60.3323C154.601 62.0667 152.453 67.0238 154.187 71.4066C155.922 75.7894 160.883 77.9378 165.265 76.2034Z" fill="black"/>
<path d="M281.601 85.3324C283.859 85.3363 286.023 84.4418 287.625 82.8519C308.804 61.7582 346.093 75.9574 346.726 76.2035C351.109 77.9418 356.07 75.7933 357.808 71.4105C359.543 67.0277 357.398 62.0668 353.015 60.3324C351.07 59.5628 304.812 41.6683 275.574 70.7503C273.125 73.1878 272.386 76.8636 273.707 80.0589C275.027 83.2543 278.144 85.3363 281.601 85.3324V85.3324Z" fill="black"/>
<path d="M264.535 332.801C234.371 332.433 205.461 320.672 183.613 299.871C184.961 299.238 186.402 298.832 187.879 298.668C192.59 298.629 196.379 294.773 196.34 290.062C196.301 285.348 192.445 281.558 187.734 281.601C169.734 283.512 155.511 297.734 153.601 315.734C153.609 320.344 157.32 324.09 161.929 324.148H162.133C166.703 324.094 170.441 320.492 170.668 315.93C170.801 314.621 171.136 313.34 171.656 312.133C196.633 336.156 229.883 349.664 264.535 349.867C269.246 349.867 273.066 346.047 273.066 341.332C273.066 336.621 269.246 332.801 264.535 332.801Z" fill="black"/>
</svg>
