<svg width="512" height="512" viewBox="0 0 512 512" fill="none" xmlns="http://www.w3.org/2000/svg">
<g clip-path="url(#clip0)">
<path d="M351.147 153.861H160.857L204.376 84.0575L207.962 78.3427L243.801 20.7419H243.887L248.922 12.6365C250.379 10.1053 253.082 8.54285 256.004 8.54285C258.926 8.54285 261.625 10.1053 263.086 12.6365L307.628 84.0575L351.147 153.861Z" fill="#FC281C"/>
<path d="M307.628 84.0576C298.507 81.3701 289.171 79.4561 279.726 78.3428C271.858 77.3116 263.937 76.7999 256.003 76.8038C251.906 76.8038 247.898 76.9757 243.886 77.1475C230.507 78.0342 217.262 80.3506 204.375 84.0576L207.961 78.3428L243.8 20.742H243.886L248.921 12.6367C250.378 10.1054 253.081 8.54297 256.003 8.54297C258.925 8.54297 261.624 10.1054 263.085 12.6367L307.628 84.0576Z" fill="#0FB300"/>
<path d="M326.827 153.861H160.857L204.376 84.0575L207.962 78.3427L243.801 20.7419H243.887L279.726 78.3427L283.308 84.0575L326.827 153.861Z" fill="#FD6158"/>
<path d="M283.309 84.0586C270.453 80.3594 257.234 78.0391 243.887 77.1484C239.875 76.9766 235.781 76.8047 231.684 76.8047C223.75 76.8008 215.828 77.3125 207.961 78.3438L243.801 20.7422H243.887L279.727 78.3438L283.309 84.0586Z" fill="#51FF41"/>
<path d="M443.736 315.734C443.736 365.527 423.955 413.276 388.748 448.482C353.542 483.689 305.792 503.466 256.004 503.466C251.652 503.466 247.383 503.294 243.203 502.954C144.751 496.24 68.3228 414.417 68.3228 315.734C68.3228 217.056 144.751 135.233 243.203 128.518C247.383 128.174 251.652 128.006 256.004 128.006C359.686 128.006 443.736 212.056 443.736 315.734V315.734Z" fill="#BF8608"/>
<path d="M418.135 315.734C418.135 212.337 339.815 128.518 243.203 128.518C146.591 128.518 68.272 212.337 68.272 315.734C68.272 419.135 146.591 502.954 243.203 502.954C339.815 502.954 418.135 419.135 418.135 315.734V315.734Z" fill="#FEB20A"/>
<path d="M384.002 337.238C384.002 343.128 383.916 348.929 383.405 354.82C382.979 361.495 382.123 368.136 380.846 374.702C380.772 375.362 380.659 376.019 380.502 376.663C377.28 392.952 369.631 408.038 358.401 420.268C353.893 425.444 348.827 430.108 343.3 434.178C334.858 440.623 325.585 445.904 315.738 449.877C314.284 450.475 312.749 451.072 311.214 451.584C307.203 453.037 303.191 454.228 299.097 455.338C287.797 458.31 276.211 460.057 264.535 460.545C261.637 460.717 258.82 460.799 256.004 460.799C253.188 460.799 250.371 460.717 247.469 460.545L243.203 460.287C232.969 459.627 222.825 457.967 212.911 455.338C208.813 454.228 204.805 453.037 200.794 451.584C199.259 451.072 197.72 450.475 196.27 449.877C186.419 445.904 177.15 440.623 168.708 434.178C163.181 430.108 158.115 425.444 153.603 420.268C142.377 408.038 134.728 392.952 131.506 376.663C131.349 376.019 131.236 375.362 131.162 374.702C129.884 368.136 129.029 361.495 128.603 354.82C128.092 348.929 128.006 343.128 128.006 337.238V335.96C128.092 333.91 128.092 331.863 128.26 329.816C128.26 328.109 128.345 326.316 128.517 324.609C128.822 323.093 128.963 321.551 128.943 320.004C128.943 320.004 131.931 322.308 137.22 325.976H137.306C141.572 328.879 147.462 332.546 154.712 336.558C159.493 339.289 164.868 342.105 170.673 344.835C179.134 348.839 187.825 352.343 196.696 355.331C202.075 357.12 207.622 358.741 213.337 360.109C223.141 362.519 233.133 364.089 243.203 364.8L247.469 365.058C249.688 365.144 251.906 365.23 254.211 365.23H257.797C260.098 365.23 262.316 365.144 264.535 365.058C276.051 364.53 287.48 362.87 298.671 360.109C304.386 358.741 309.933 357.12 315.308 355.331C324.183 352.343 332.874 348.839 341.335 344.835C347.139 342.105 352.514 339.289 357.292 336.558C357.717 336.3 358.061 336.128 358.401 335.96C365.143 332.121 370.776 328.621 374.788 325.89C380.162 322.308 383.065 320.004 383.065 320.004C383.041 321.551 383.186 323.093 383.491 324.609C383.659 326.316 383.744 328.109 383.744 329.816C383.916 332.289 383.916 334.765 384.002 337.238V337.238Z" fill="#CFD8DC"/>
<path d="M358.401 335.96V337.238C358.401 343.128 358.315 348.929 357.803 354.82C357.378 361.495 356.522 368.136 355.245 374.702C355.171 375.362 355.057 376.019 354.905 376.663C351.678 392.952 344.03 408.038 332.804 420.268C328.292 425.444 323.226 430.108 317.698 434.178C309.257 440.623 299.988 445.904 290.136 449.877C288.687 450.475 287.148 451.072 285.613 451.584C281.601 453.037 277.594 454.228 273.496 455.338C263.582 457.967 253.438 459.627 243.203 460.287C232.969 459.627 222.825 457.967 212.911 455.338C208.813 454.228 204.805 453.037 200.794 451.584C199.259 451.072 197.72 450.475 196.27 449.877C186.419 445.904 177.15 440.623 168.708 434.178C163.181 430.108 158.115 425.444 153.603 420.268C142.377 408.038 134.728 392.952 131.506 376.663C131.349 376.019 131.236 375.362 131.162 374.702C129.884 368.136 129.029 361.495 128.603 354.82C128.092 348.929 128.006 332.886 128.006 327V315.734C128.345 315.906 128.689 324.011 129.115 324.269C133.892 327 139.267 331.863 145.072 334.593C153.533 338.597 162.224 342.105 171.099 345.089C176.474 346.882 182.021 348.503 187.739 349.87C198.575 352.515 210.008 364.546 221.872 365.058C224.09 365.144 226.309 365.23 228.61 365.23H232.196C234.5 365.23 236.719 365.144 238.938 365.058L243.203 364.8L247.469 365.058C249.688 365.144 251.906 365.23 254.211 365.23H257.797C260.098 365.23 262.316 365.144 264.535 365.058C276.051 364.53 287.48 362.87 298.671 360.109C304.386 358.741 309.933 357.12 315.308 355.331C324.183 352.343 332.874 348.839 341.335 344.835C347.139 342.105 352.514 339.289 357.292 336.558C357.717 336.3 358.061 336.128 358.401 335.96V335.96Z" fill="white"/>
<path d="M110.939 0.0078125C106.225 0.0078125 102.404 3.82812 102.404 8.53906V17.0742C102.404 21.7852 106.225 25.6055 110.939 25.6055C115.65 25.6055 119.471 21.7852 119.471 17.0742V8.53906C119.471 3.82812 115.65 0.0078125 110.939 0.0078125Z" fill="#FCFCFC"/>
<path d="M102.404 59.7377C102.404 64.4526 106.225 68.2729 110.939 68.2729C115.65 68.2729 119.471 64.4526 119.471 59.7377V51.2065C119.471 46.4916 115.65 42.6713 110.939 42.6713C106.225 42.6713 102.404 46.4916 102.404 51.2065V59.7377Z" fill="#FCFCFC"/>
<path d="M93.8735 25.6051H85.3384C80.6274 25.6051 76.8071 29.4254 76.8071 34.1403C76.8071 38.8512 80.6274 42.6715 85.3384 42.6715H93.8735C98.5845 42.6715 102.405 38.8512 102.405 34.1403C102.405 29.4254 98.5845 25.6051 93.8735 25.6051Z" fill="#FCFCFC"/>
<path d="M128.006 42.6715H136.537C141.252 42.6715 145.072 38.8512 145.072 34.1403C145.072 29.4254 141.252 25.6051 136.537 25.6051H128.006C123.291 25.6051 119.47 29.4254 119.47 34.1403C119.47 38.8512 123.291 42.6715 128.006 42.6715Z" fill="#FCFCFC"/>
<path d="M42.6748 102.405C42.6748 97.6941 38.8506 93.8738 34.1396 93.8738C29.4287 93.8738 25.6045 97.6941 25.6045 102.405V110.94C25.6045 115.651 29.4287 119.471 34.1396 119.471C38.8506 119.471 42.6748 115.651 42.6748 110.94V102.405Z" fill="#FCFCFC"/>
<path d="M34.1396 136.537C29.4287 136.537 25.6045 140.358 25.6045 145.072V153.604C25.6045 158.319 29.4287 162.139 34.1396 162.139C38.8506 162.139 42.6748 158.319 42.6748 153.604V145.072C42.6748 140.358 38.8506 136.537 34.1396 136.537Z" fill="#FCFCFC"/>
<path d="M8.53857 136.538H17.0737C21.7847 136.538 25.605 132.717 25.605 128.006C25.605 123.291 21.7847 119.471 17.0737 119.471H8.53857C3.82764 119.471 0.00732422 123.291 0.00732422 128.006C0.00732422 132.717 3.82764 136.538 8.53857 136.538Z" fill="#FCFCFC"/>
<path d="M51.2058 136.538H59.741C64.4519 136.538 68.2722 132.717 68.2722 128.006C68.2722 123.291 64.4519 119.471 59.741 119.471H51.2058C46.4949 119.471 42.6746 123.291 42.6746 128.006C42.6746 132.717 46.4949 136.538 51.2058 136.538Z" fill="#FCFCFC"/>
<path d="M392.533 17.074C387.823 17.074 384.002 20.8943 384.002 25.6053V34.1404C384.002 38.8513 387.823 42.6717 392.533 42.6717C397.248 42.6717 401.069 38.8513 401.069 34.1404V25.6053C401.069 20.8943 397.248 17.074 392.533 17.074V17.074Z" fill="#FCFCFC"/>
<path d="M384.002 76.8039C384.002 81.5188 387.823 85.3391 392.533 85.3391C397.248 85.3391 401.069 81.5188 401.069 76.8039V68.2727C401.069 63.5578 397.248 59.7375 392.533 59.7375C387.823 59.7375 384.002 63.5578 384.002 68.2727V76.8039Z" fill="#FCFCFC"/>
<path d="M375.467 42.6713H366.936C362.221 42.6713 358.401 46.4916 358.401 51.2065C358.401 55.9174 362.221 59.7377 366.936 59.7377H375.467C380.182 59.7377 384.002 55.9174 384.002 51.2065C384.002 46.4916 380.182 42.6713 375.467 42.6713Z" fill="#FCFCFC"/>
<path d="M409.6 59.7377H418.135C422.846 59.7377 426.67 55.9174 426.67 51.2065C426.67 46.4916 422.846 42.6713 418.135 42.6713H409.6C404.889 42.6713 401.068 46.4916 401.068 51.2065C401.068 55.9174 404.889 59.7377 409.6 59.7377V59.7377Z" fill="#FCFCFC"/>
<path d="M486.4 110.94C486.4 106.225 482.579 102.405 477.868 102.405C473.154 102.405 469.333 106.225 469.333 110.94V119.471C469.333 124.186 473.154 128.006 477.868 128.006C482.579 128.006 486.4 124.186 486.4 119.471V110.94Z" fill="#FCFCFC"/>
<path d="M477.868 170.67C482.579 170.67 486.4 166.85 486.4 162.139V153.604C486.4 148.893 482.579 145.072 477.868 145.072C473.154 145.072 469.333 148.893 469.333 153.604V162.139C469.333 166.85 473.154 170.67 477.868 170.67V170.67Z" fill="#FCFCFC"/>
<path d="M460.802 145.073C465.513 145.073 469.333 141.252 469.333 136.537C469.333 131.826 465.513 128.006 460.802 128.006H452.267C447.556 128.006 443.736 131.826 443.736 136.537C443.736 141.252 447.556 145.073 452.267 145.073H460.802Z" fill="#FCFCFC"/>
<path d="M503.466 128.006H494.935C490.22 128.006 486.399 131.826 486.399 136.537C486.399 141.252 490.22 145.073 494.935 145.073H503.466C508.181 145.073 512.001 141.252 512.001 136.537C512.001 131.826 508.181 128.006 503.466 128.006Z" fill="#FCFCFC"/>
<path d="M256.004 512.001C344.093 511.958 421.361 453.232 444.986 368.37C468.611 283.508 432.799 193.302 357.405 147.752L270.32 8.11318C267.305 3.08199 261.867 0 256 0C250.129 0 244.692 3.08199 241.676 8.11318L154.638 147.744C79.2367 193.287 43.4208 283.489 67.0338 368.355C90.6507 453.217 167.915 511.95 256.004 512.001V512.001ZM255.84 17.1599L289.589 71.2764C267.285 67.4405 244.485 67.4405 222.176 71.2764L255.84 17.1599ZM209.633 91.5262C239.961 83.4559 271.867 83.4559 302.195 91.5262L328.288 133.338C281.847 114.85 230.09 114.85 183.649 133.338L209.633 91.5262ZM256.004 136.537C354.971 136.537 435.201 216.767 435.201 315.734C435.201 414.706 354.971 494.935 256.004 494.935C157.037 494.935 76.8071 414.706 76.8071 315.734C76.9204 216.814 157.083 136.651 256.004 136.537V136.537Z" fill="black"/>
<path d="M146.958 259.188C143.994 262.852 144.56 268.223 148.224 271.188C151.888 274.153 157.263 273.586 160.228 269.922C167.189 261.817 177.083 256.809 187.739 256.004C198.387 256.813 208.282 261.817 215.251 269.911C218.243 273.457 223.52 273.957 227.129 271.039C230.739 268.122 231.356 262.856 228.516 259.188C218.317 247.075 203.551 239.743 187.739 238.938C171.927 239.743 157.158 247.075 146.958 259.188Z" fill="black"/>
<path d="M150.908 229.958C155.377 231.447 160.201 229.033 161.693 224.568C161.763 224.373 168.607 204.802 196.271 204.802C200.986 204.802 204.806 200.982 204.806 196.271C204.806 191.556 200.986 187.736 196.271 187.736C156.447 187.736 145.923 217.884 145.517 219.173C144.029 223.642 146.443 228.47 150.908 229.958Z" fill="black"/>
<path d="M296.757 269.922C303.718 261.817 313.616 256.809 324.269 256.004C334.909 256.809 344.792 261.801 351.753 269.887C354.717 273.528 360.065 274.09 363.721 271.149C367.381 268.204 367.971 262.86 365.049 259.188C354.85 247.075 340.081 239.743 324.269 238.938C308.456 239.743 293.687 247.075 283.488 259.188C280.523 262.852 281.093 268.223 284.757 271.188C288.421 274.153 293.792 273.586 296.757 269.922Z" fill="black"/>
<path d="M315.738 204.802C342.827 204.802 349.988 223.689 350.331 224.634C351.933 228.97 356.691 231.24 361.066 229.763C365.441 228.283 367.847 223.591 366.491 219.173C366.081 217.884 355.562 187.736 315.738 187.736C311.023 187.736 307.202 191.556 307.202 196.271C307.202 200.982 311.023 204.802 315.738 204.802V204.802Z" fill="black"/>
<path d="M155.876 434.494C156.079 434.717 156.302 434.928 156.533 435.123C168.618 445.85 182.653 454.15 197.876 459.572C198.942 459.955 200.067 460.221 201.141 460.588C201.626 460.783 202.122 460.935 202.63 461.049C237.356 472.095 274.652 472.095 309.378 461.049C309.886 460.935 310.382 460.783 310.863 460.588C311.937 460.221 313.066 459.955 314.132 459.572C329.355 454.15 343.389 445.85 355.475 435.123C355.706 434.928 355.924 434.717 356.132 434.494C372.819 419.791 384.315 400.096 388.908 378.335C391.533 364.78 392.748 350.992 392.533 337.187C392.533 336.703 392.483 336.222 392.475 335.738C394.483 337.398 396.186 339.39 397.51 341.632C399.385 345.886 404.318 347.855 408.607 346.062C412.896 344.273 414.963 339.378 413.252 335.054C412.213 332.496 401.725 309.738 355.151 304.184C352.116 303.805 349.108 305.082 347.272 307.531C345.436 309.976 345.054 313.219 346.264 316.027C347.475 318.84 350.096 320.785 353.135 321.129C357.01 321.59 360.503 322.203 363.753 322.894C343.323 335.695 303.003 356.659 257.805 356.659H254.219C208.993 356.659 168.7 335.695 148.279 322.894C151.533 322.203 155.013 321.59 158.888 321.129C161.927 320.785 164.548 318.84 165.759 316.027C166.97 313.219 166.587 309.976 164.751 307.531C162.915 305.082 159.907 303.805 156.872 304.184C110.299 309.738 99.8106 332.476 98.7716 335.054C97.7403 337.667 98.0684 340.621 99.6465 342.941C101.225 345.265 103.846 346.656 106.654 346.66C110.018 346.644 113.072 344.695 114.506 341.652C115.826 339.402 117.533 337.402 119.549 335.746C119.549 336.222 119.498 336.703 119.49 337.187C119.271 350.992 120.486 364.78 123.107 378.335C127.697 400.096 139.189 419.791 155.876 434.494V434.494ZM136.537 337.351V335.644C141.138 338.597 146.915 342.054 153.603 345.644V368.839C146.154 364.425 140.669 360.671 137.494 358.386C136.802 351.394 136.482 344.374 136.537 337.351ZM374.514 358.402C371.338 360.691 365.85 364.444 358.401 368.855V345.671C365.057 342.078 370.834 338.621 375.467 335.668V337.375C375.522 344.398 375.202 351.413 374.514 358.402ZM341.335 378.03C333.026 382.112 324.476 385.694 315.737 388.753V364.007C324.444 361.195 332.991 357.898 341.335 354.136V378.03ZM341.335 424.959C333.558 431.272 324.941 436.479 315.737 440.432V406.811C324.452 403.96 332.999 400.616 341.335 396.8V424.959ZM170.673 396.8C179.013 400.589 187.559 403.905 196.27 406.733V440.354C187.071 436.424 178.454 431.244 170.673 424.959V396.8ZM213.336 411.393C224.543 414.03 235.969 415.608 247.469 416.104V451.928C235.926 451.404 224.477 449.592 213.336 446.518V411.393ZM264.535 416.104C276.035 415.608 287.464 414.03 298.671 411.393V446.482C287.531 449.557 276.082 451.373 264.535 451.893V416.104ZM298.671 393.917C287.496 396.776 276.058 398.491 264.535 399.038V373.53C276.039 373.019 287.464 371.425 298.671 368.769V393.917ZM247.469 399.038C235.949 398.491 224.512 396.776 213.336 393.917V368.769C224.539 371.425 235.969 373.019 247.469 373.53V399.038ZM196.27 388.78C187.532 385.71 178.981 382.12 170.673 378.03V354.136C179.013 357.902 187.559 361.202 196.27 364.019V388.78ZM153.603 388.397V406.631C148.251 398.991 144.212 390.511 141.658 381.534C145.181 383.694 149.177 385.999 153.603 388.397ZM358.401 406.631V388.397C362.831 385.999 366.823 383.694 370.35 381.569C367.792 390.53 363.753 399.003 358.401 406.631Z" fill="black"/>
</g>
<defs>
<clipPath id="clip0">
<rect width="512" height="512" fill="white"/>
</clipPath>
</defs>
</svg>
