<svg width="1000" height="1000" viewBox="0 0 1000 1000" fill="none" xmlns="http://www.w3.org/2000/svg">
<path d="M596.774 596.774V903.226C596.774 956.452 553.226 1000 500 1000C446.774 1000 403.226 956.452 403.226 903.226V596.774H96.7742C43.5484 596.774 0 553.226 0 500C0 446.774 43.5484 403.226 96.7742 403.226H403.226V96.7742C403.226 43.5484 446.774 -2.32657e-06 500 0C553.226 4.23014e-06 596.774 43.5484 596.774 96.7742V403.226H903.226C956.452 403.226 1000 446.774 1000 500C1000 553.226 956.452 596.774 903.226 596.774H596.774Z" fill="#FEB20C"/>
</svg>
