<svg width="512" height="512" viewBox="0 0 512 512" fill="none" xmlns="http://www.w3.org/2000/svg">
<g clip-path="url(#clip0)">
<path d="M486.332 238.934C486.297 349.289 408.047 444.141 299.707 465.152H212.156C98.0976 442.965 18.4101 339.312 26.2812 223.383C34.1523 107.453 127.121 15.5273 243.133 8.96094C247.398 8.61719 251.664 8.53516 255.934 8.53516C383.18 8.53516 486.332 111.688 486.332 238.934V238.934Z" fill="#BF8608"/>
<path d="M460.73 238.934C460.695 349.289 382.445 444.141 274.109 465.152H212.156C98.0976 442.965 18.4101 339.312 26.2812 223.383C34.1523 107.453 127.121 15.5273 243.133 8.96094C365.211 15.707 460.742 116.668 460.73 238.934V238.934Z" fill="#FEB20A"/>
<path d="M197.906 407.543C138.684 387.32 114.192 338.168 104.211 314.273C102.969 311.359 102.328 308.226 102.332 305.059C102.309 297.391 106.035 290.195 112.309 285.793C118.586 281.387 126.617 280.328 133.82 282.957C155.695 290.516 178.195 296.109 201.063 299.684C237.391 305.742 274.473 305.742 310.801 299.684C333.668 296.109 356.168 290.516 378.043 282.957C386.84 279.785 396.68 282.125 403.106 288.918C409.527 295.715 411.317 305.668 407.656 314.273C397.672 337.996 373.438 386.894 314.727 407.289L197.906 407.543Z" fill="#4E342E"/>
<path d="M315.664 417.109C315.664 436.141 288.957 503.465 255.934 503.465C251.457 503.414 247.066 502.273 243.133 500.141C216.25 486.398 196.199 433.578 196.199 417.109C196.199 403.113 207.461 389.121 229.82 384.258H229.906C235.602 383.078 241.41 382.508 247.227 382.551H247.398C249.637 382.68 251.848 383.109 253.969 383.828C257.875 385.125 261.457 387.25 264.465 390.059C264.684 390.234 264.887 390.437 265.062 390.656C267.973 388.254 271.301 386.402 274.875 385.195C279.73 383.379 284.883 382.48 290.066 382.551C307.133 382.551 315.664 399.785 315.664 417.109V417.109Z" fill="#FC281C"/>
<path d="M255.934 348.414C251.496 348.414 247.227 348.332 243.133 348.246C156.773 346.113 153.445 321.793 153.531 295.594V289.195C169.152 293.641 185.023 297.148 201.063 299.691C214.672 301.961 228.406 303.387 242.191 303.957C242.816 304 243.445 304 244.07 303.957C266.402 304.797 288.758 303.367 310.801 299.691C317.797 298.582 325.137 297.215 332.73 295.594C341.094 293.801 349.715 291.668 358.332 289.195C358.418 318.891 362.43 348.414 255.934 348.414V348.414Z" fill="#CFD8DC"/>
<path d="M290.066 417.109C290.066 433.578 270.012 486.398 243.133 500.141C216.25 486.398 196.199 433.578 196.199 417.109C196.199 403.113 207.461 389.121 229.82 384.258H229.906C233.188 385.695 236.211 387.652 238.867 390.059C239.086 390.234 239.285 390.437 239.461 390.656C243.691 387.266 248.664 384.926 253.969 383.828C257.395 382.93 260.926 382.5 264.465 382.551C268.109 382.5 271.699 383.414 274.875 385.195C285.289 392.344 291.082 404.52 290.066 417.109V417.109Z" fill="#FD6158"/>
<path d="M332.734 289.195L332.73 295.594C332.816 321.793 329.488 346.113 243.133 348.246C156.773 346.113 153.445 321.793 153.531 295.594C161.125 297.215 168.465 298.582 175.461 299.691C197.504 303.367 219.863 304.797 242.191 303.957C242.816 304 243.445 304 244.07 303.957C257.855 303.387 271.594 301.961 285.203 299.691C301.242 297.148 317.113 293.641 332.734 289.195V289.195Z" fill="white"/>
<path d="M187.664 154.375V112.121C195.633 113.914 202.168 119.578 205.082 127.207C205.875 130.211 208.234 132.547 211.246 133.305C214.258 134.066 217.445 133.129 219.566 130.859C221.688 128.59 222.41 125.348 221.449 122.395C216.211 107.602 203.199 96.9414 187.664 94.7188V85.332C187.664 80.6211 183.844 76.8008 179.133 76.8008C174.418 76.8008 170.598 80.6211 170.598 85.332V94.6445C151.641 97.3203 137.289 113.137 136.465 132.266C137.289 151.395 151.641 167.215 170.598 169.891V212.148C162.633 210.352 156.094 204.687 153.184 197.059C151.754 192.668 147.09 190.207 142.66 191.512C138.227 192.812 135.637 197.406 136.816 201.875C142.051 216.664 155.066 227.324 170.598 229.547V238.934C170.598 243.645 174.418 247.465 179.133 247.465C183.844 247.465 187.664 243.645 187.664 238.934V229.625C206.625 226.945 220.977 211.129 221.797 192C220.977 172.871 206.625 157.055 187.664 154.375ZM153.531 132.266C154.156 122.551 161.102 114.402 170.598 112.246V152.285C161.102 150.133 154.156 141.984 153.531 132.266ZM187.664 212.02V171.98C197.16 174.137 204.105 182.281 204.73 192C204.105 201.719 197.16 209.863 187.664 212.02Z" fill="black"/>
<path d="M341.266 154.375V112.121C349.23 113.914 355.77 119.578 358.684 127.207C359.473 130.211 361.836 132.547 364.848 133.305C367.859 134.066 371.047 133.129 373.168 130.859C375.289 128.59 376.008 125.348 375.047 122.395C369.812 107.602 356.797 96.9414 341.266 94.7188V85.332C341.266 80.6211 337.445 76.8008 332.73 76.8008C328.02 76.8008 324.199 80.6211 324.199 85.332V94.6445C305.242 97.3203 290.891 113.137 290.066 132.266C290.891 151.395 305.242 167.215 324.199 169.891V212.148C316.234 210.352 309.695 204.687 306.781 197.059C305.355 192.668 300.691 190.207 296.258 191.512C291.828 192.812 289.238 197.406 290.414 201.875C295.652 216.664 308.668 227.324 324.199 229.547V238.934C324.199 243.645 328.02 247.465 332.73 247.465C337.445 247.465 341.266 243.645 341.266 238.934V229.625C360.223 226.945 374.574 211.129 375.398 192C374.574 172.871 360.223 157.055 341.266 154.375ZM307.133 132.266C307.758 122.551 314.703 114.402 324.199 112.246V152.285C314.703 150.133 307.758 141.984 307.133 132.266ZM341.266 212.02V171.98C350.762 174.137 357.707 182.281 358.332 192C357.707 201.719 350.762 209.863 341.266 212.02Z" fill="black"/>
<path d="M255.933 6.06404e-06C133.566 -0.0273377 30.9686 92.4219 18.2967 214.133C5.62873 335.84 86.9803 447.441 206.73 472.617C218.922 493.629 236.133 512 255.933 512C275.73 512 292.941 493.629 305.137 472.617C424.883 447.441 506.238 335.84 493.566 214.133C480.894 92.4219 378.297 -0.0273377 255.933 6.06404e-06V6.06404e-06ZM157.629 335.914C173.074 351.473 203.383 358.398 255.933 358.398C308.48 358.398 338.789 351.473 354.234 335.914C363.914 324.832 368.496 310.199 366.867 295.578C371.637 294.117 376.328 292.625 380.844 291.02C387.308 288.664 394.547 290.988 398.43 296.668C400.082 299.156 400.972 302.07 400.988 305.059C400.992 307.09 400.578 309.098 399.777 310.965C382.164 352.828 355.14 381.285 319.617 396.066C314.949 383.77 303.219 375.59 290.066 375.465C281.515 375.355 273.074 377.41 265.531 381.441C260.117 377.758 253.769 375.687 247.226 375.465C221.535 375.465 203.945 384.758 194.867 397.125C157.883 382.617 130.015 353.809 112.051 310.938C111.262 309.078 110.859 307.078 110.867 305.059C110.875 302.102 111.738 299.211 113.355 296.738C117.226 291.035 124.465 288.676 130.953 291.004C135.484 292.609 140.195 294.117 144.972 295.578C143.351 310.203 147.941 324.836 157.629 335.914V335.914ZM162.066 300.375C174.012 303.398 186.527 305.984 199.613 308.121C236.855 314.359 274.879 314.359 312.125 308.121C325.293 305.988 337.851 303.406 349.797 300.375C350.48 308.93 347.715 317.406 342.117 323.918C330.469 335.625 302.277 341.332 255.933 341.332C209.586 341.332 181.394 335.625 169.746 323.891C164.156 317.387 161.39 308.922 162.066 300.375ZM255.933 494.934C230.144 494.934 204.73 434.832 204.73 418.133C204.73 405.41 219.324 392.535 246.871 392.535C251.344 392.797 255.57 394.672 258.773 397.809C258.945 397.996 259.183 398.098 259.371 398.27L259.449 398.371C263.703 403.062 265.41 409.527 264.031 415.711C263.488 417.91 263.844 420.23 265.019 422.168C266.191 424.105 268.086 425.496 270.285 426.035C270.953 426.195 271.637 426.273 272.324 426.273C276.25 426.27 279.668 423.586 280.601 419.773C282.34 411.309 281.308 402.512 277.656 394.684C281.633 393.23 285.836 392.5 290.066 392.535C303.566 392.535 307.133 409.277 307.133 418.133C307.133 434.832 281.719 494.934 255.933 494.934V494.934ZM314.949 452.727C319.976 441.805 323.101 430.105 324.199 418.133C324.199 416.332 324.078 414.523 323.918 412.73C364.824 396.52 395.707 364.645 415.504 317.629C417.203 313.656 418.074 309.379 418.066 305.059C418.086 294.621 413.012 284.828 404.469 278.828C395.93 272.824 385 271.367 375.183 274.918C353.785 282.312 331.773 287.785 309.402 291.27C273.984 297.184 237.836 297.184 202.418 291.27C180.051 287.785 158.039 282.309 136.644 274.91C126.832 271.371 115.91 272.836 107.379 278.84C98.8475 284.844 93.7811 294.629 93.7967 305.059C93.7967 309.359 94.6678 313.613 96.3592 317.566C116.047 364.672 146.996 396.535 188.176 412.801C187.863 414.563 187.691 416.344 187.664 418.133C188.762 430.109 191.887 441.812 196.914 452.734C89.8904 423.203 21.1717 319.105 36.074 209.086C50.9725 99.0625 144.906 16.9961 255.933 16.9961C366.957 16.9961 460.89 99.0625 475.793 209.086C490.691 319.105 421.972 423.203 314.949 452.734V452.727Z" fill="black"/>
</g>
<defs>
<clipPath id="clip0">
<rect width="512" height="512" fill="white"/>
</clipPath>
</defs>
</svg>
