<svg width="512" height="512" viewBox="0 0 512 512" fill="none" xmlns="http://www.w3.org/2000/svg">
<g clip-path="url(#clip0)">
<path d="M486.339 298.712C486.339 411.755 383.192 503.467 255.984 503.467C251.72 503.467 247.455 503.385 243.19 503.127C121.953 497.241 25.6333 407.916 25.6333 298.712C25.6372 277.322 29.3903 256.096 36.7248 236.002C40.2592 226.395 42.4697 216.35 43.2937 206.141C51.1515 99.6513 136.599 15.4108 243.19 9.06449C247.455 8.72081 251.72 8.63879 255.984 8.63879C367.625 8.63879 460.372 94.7304 468.679 206.059C469.495 216.237 471.705 226.254 475.248 235.834C482.574 255.986 486.327 277.267 486.339 298.712V298.712Z" fill="#FC281C"/>
<path d="M460.743 298.712C460.743 407.916 364.423 497.241 243.19 503.127C121.953 497.241 25.6333 407.916 25.6333 298.712C25.6372 277.322 29.3903 256.096 36.7248 236.002C40.2592 226.395 42.4697 216.35 43.2937 206.141C51.1515 99.6514 136.599 15.4109 243.19 9.06458C349.75 15.4031 435.186 99.6006 443.082 206.059C443.899 216.237 446.109 226.254 449.651 235.834C456.982 255.986 460.735 277.267 460.743 298.712V298.712Z" fill="#FD6158"/>
<path d="M226.127 206.739C216.399 198.463 199.508 190.531 170.67 190.531C141.832 190.531 124.941 198.463 115.217 206.739C123.918 179.182 145.503 156.405 170.67 156.405C195.837 156.405 217.422 179.182 226.127 206.739Z" fill="#FC281C"/>
<path d="M230.392 233.186C230.392 270.897 203.686 301.442 170.67 301.442C137.653 301.442 110.948 270.897 110.948 233.186C110.956 224.2 112.397 215.272 115.216 206.739C124.941 198.463 141.832 190.531 170.67 190.531C199.508 190.531 216.399 198.463 226.127 206.739C228.943 215.272 230.384 224.2 230.392 233.186V233.186Z" fill="white"/>
<path d="M228.771 217.151C224.889 226.527 214.934 231.874 204.972 229.925C195.009 227.98 187.799 219.279 187.733 209.129C187.745 202.864 190.486 196.916 195.243 192.835L228.123 214.061L228.771 217.151Z" fill="#00BCD4"/>
<path d="M396.756 206.739C387.032 198.463 370.141 190.531 341.303 190.531C312.465 190.531 295.574 198.463 285.845 206.739C294.551 179.182 316.132 156.405 341.303 156.405C366.469 156.405 388.055 179.182 396.756 206.739V206.739Z" fill="#FC281C"/>
<path d="M401.025 233.186C401.025 270.897 374.319 301.442 341.303 301.442C336.991 301.457 332.691 300.938 328.504 299.907C301.631 293.166 281.581 265.863 281.581 233.186C281.588 224.2 283.029 215.272 285.845 206.739C298.085 197.205 313.004 191.746 328.504 191.129C332.758 190.699 337.03 190.5 341.303 190.531C370.14 190.531 387.031 198.463 396.756 206.739C399.576 215.272 401.017 224.2 401.025 233.186V233.186Z" fill="#CFD8DC"/>
<path d="M375.428 233.186C375.428 265.863 355.378 293.166 328.504 299.907C301.631 293.166 281.581 265.863 281.581 233.186C281.588 224.2 283.029 215.272 285.845 206.739C298.085 197.205 313.004 191.746 328.504 191.129C344.005 191.746 358.924 197.205 371.164 206.739C373.98 215.272 375.421 224.2 375.428 233.186Z" fill="white"/>
<path d="M399.4 217.151C395.522 226.527 385.567 231.874 375.604 229.925C365.642 227.98 358.428 219.279 358.366 209.129C358.377 202.864 361.119 196.916 365.872 192.835L398.752 214.061L399.4 217.151Z" fill="#00BCD4"/>
<path d="M238.922 233.214C238.922 192.945 209.736 147.899 170.67 147.899C131.604 147.899 102.418 192.945 102.418 233.214C102.418 275.556 133.037 309.999 170.67 309.999C208.303 309.999 238.922 275.556 238.922 233.214ZM198.278 202.365C205.663 204.157 212.618 207.387 218.754 211.866C219.121 213.163 219.453 214.428 219.761 215.784C217.5 219.548 213.454 221.872 209.064 221.927C204.401 221.958 200.098 219.439 197.844 215.354C195.595 211.273 195.763 206.286 198.278 202.365ZM170.67 164.962C185.558 166.165 198.992 174.355 206.885 187.032C195.142 183.532 182.925 181.841 170.67 182.025C158.415 181.841 146.202 183.532 134.455 187.032C142.348 174.355 155.782 166.165 170.67 164.962ZM119.481 233.214C119.516 225.996 120.551 218.818 122.551 211.886C136.74 202.423 153.658 197.92 170.67 199.088C174.337 199.088 177.751 199.248 180.984 199.498C179.86 202.587 179.254 205.84 179.203 209.129C179.168 219.353 184.386 228.879 193.021 234.358C201.656 239.833 212.493 240.497 221.734 236.115C220.425 267.683 198.055 292.936 170.67 292.936C142.438 292.936 119.481 266.144 119.481 233.214Z" fill="black"/>
<path d="M119.481 144.142C122.168 144.142 124.695 142.881 126.308 140.733C126.519 140.432 148.94 111.45 202.46 126.767C206.991 128.056 211.712 125.427 213.005 120.897C214.294 116.363 211.665 111.641 207.135 110.352C142.516 91.9146 113.85 128.93 112.655 130.493C110.717 133.078 110.405 136.538 111.85 139.428C113.295 142.318 116.248 144.142 119.481 144.142Z" fill="black"/>
<path d="M302.057 97.3667C302.381 97.1949 335.484 81.413 376.366 119.061C378.6 121.163 381.791 121.901 384.724 120.999C387.656 120.096 389.875 117.687 390.539 114.695C391.203 111.7 390.211 108.579 387.934 106.521C338.495 60.9601 296.265 81.1552 294.488 82.0613C291.754 83.4125 289.95 86.119 289.755 89.1614C289.556 92.2076 291.001 95.125 293.539 96.816C296.074 98.5071 299.323 98.718 302.057 97.3667V97.3667Z" fill="black"/>
<path d="M341.303 147.899C302.237 147.899 273.051 192.945 273.051 233.214C273.051 275.556 303.67 309.999 341.303 309.999C378.936 309.999 409.554 275.556 409.554 233.214C409.554 192.917 380.369 147.899 341.303 147.899ZM368.91 202.365C376.292 204.157 383.251 207.387 389.387 211.866C389.754 213.163 390.086 214.428 390.394 215.784C388.133 219.548 384.083 221.872 379.693 221.927C375.034 221.958 370.726 219.439 368.477 215.354C366.227 211.273 366.391 206.286 368.91 202.365ZM341.303 164.962C356.19 166.165 369.625 174.355 377.518 187.032C365.77 183.532 353.558 181.841 341.303 182.025C329.044 181.841 316.831 183.532 305.084 187.032C312.981 174.355 326.415 166.165 341.303 164.962V164.962ZM341.303 292.936C313.07 292.936 290.114 266.144 290.114 233.214C290.149 225.996 291.184 218.818 293.184 211.886C307.368 202.423 324.291 197.92 341.303 199.088C344.97 199.088 348.383 199.248 351.617 199.498C350.488 202.587 349.887 205.84 349.832 209.129C349.801 219.353 355.019 228.879 363.654 234.358C372.285 239.833 383.126 240.497 392.363 236.115C391.058 267.691 368.688 292.936 341.303 292.936V292.936Z" fill="black"/>
<path d="M281.581 378.25C279.304 378.25 225.596 378.582 206.229 407.65C203.718 411.568 204.807 416.773 208.678 419.355C212.552 421.936 217.777 420.937 220.425 417.113C232.302 399.297 268.603 395.34 281.588 395.313C286.302 395.313 290.122 391.494 290.122 386.784C290.122 382.07 286.302 378.25 281.588 378.25H281.581Z" fill="black"/>
<path d="M186.881 407.643C188.983 403.421 187.264 398.297 183.046 396.196C178.824 394.095 173.701 395.813 171.599 400.031C170.459 402.335 160.68 422.956 173.205 435.473C176.552 438.706 181.875 438.66 185.163 435.367C188.455 432.075 188.502 426.756 185.268 423.409C182.367 420.534 184.909 411.575 186.881 407.643V407.643Z" fill="black"/>
<path d="M477.2 205.399C468.605 89.5675 372.105 -0.019524 255.949 3.19162e-06C139.797 0.0195304 43.3289 89.6417 34.772 205.477C34.03 214.893 31.9875 224.161 28.703 233.018C21.0132 254.065 17.0882 276.302 17.1038 298.712C17.1038 416.317 124.265 512 255.984 512C387.703 512 494.869 416.317 494.869 298.712C494.88 276.275 490.952 254.014 483.258 232.94C479.977 224.087 477.939 214.815 477.2 205.399V205.399ZM255.984 494.937C133.67 494.937 34.1667 406.916 34.1667 298.712C34.155 278.306 37.7324 258.06 44.7348 238.896C48.5583 228.551 50.9328 217.729 51.7842 206.731C59.6497 99.7802 148.71 17.016 255.949 16.9965C363.193 16.9731 452.284 99.706 460.188 206.657C461.04 217.643 463.406 228.457 467.226 238.795C474.236 257.99 477.817 278.271 477.806 298.712C477.806 406.916 378.303 494.937 255.984 494.937V494.937Z" fill="black"/>
</g>
<defs>
<clipPath id="clip0">
<rect width="512" height="512" fill="white"/>
</clipPath>
</defs>
</svg>
