<svg width="512" height="512" viewBox="0 0 512 512" fill="none" xmlns="http://www.w3.org/2000/svg">
<g clip-path="url(#clip0)">
<path d="M486.393 298.667C486.393 411.73 383.228 503.462 256.001 503.462C251.732 503.462 247.466 503.376 243.201 503.122C121.946 497.232 25.6047 407.891 25.6047 298.667C25.6086 277.273 29.3624 256.047 36.6982 235.95L36.956 235.18L50.2682 165.381C74.4394 77.3015 152.027 14.4008 243.201 8.9674C247.38 8.62756 251.732 8.54163 256.001 8.54163C352.081 8.56116 436.313 72.747 461.82 165.381L475.046 235.094V235.18C475.132 235.438 475.214 235.524 475.3 235.778C482.628 255.937 486.382 277.218 486.393 298.667V298.667Z" fill="#00838F"/>
<path d="M460.796 298.667C460.796 407.891 364.455 497.232 243.201 503.122C121.946 497.232 25.6047 407.891 25.6047 298.667C25.6086 277.273 29.3624 256.047 36.6982 235.95L36.956 235.18L50.2682 165.381C74.4394 77.3016 152.027 14.4009 243.201 8.96741C334.386 14.4204 411.985 77.3055 436.219 165.381L449.445 235.094V235.18C449.531 235.438 449.617 235.524 449.703 235.778C457.031 255.937 460.785 277.218 460.796 298.667Z" fill="#00BCD4"/>
<path d="M341.331 396.797C341.331 380.305 326.05 366.931 307.199 366.931C288.348 366.931 273.067 380.305 273.067 396.797C273.067 413.293 288.348 426.663 307.199 426.663C326.05 426.663 341.331 413.293 341.331 396.797Z" fill="#FD6158"/>
<path d="M503.459 186.541V190.213C503.639 196.283 500.456 201.958 495.182 204.974C485.401 210.993 478.472 220.724 475.983 231.938C468.046 257.281 465.913 284.929 452.601 308.053C440.484 329.217 416.165 338.092 394.064 340.138C382.791 341.392 371.424 341.619 360.104 340.822C350.131 340.088 340.327 337.873 331.007 334.252C307.199 324.608 296.191 304.471 286.035 280.831C281.598 270.507 277.844 259.926 273.321 249.688C273.333 249.594 273.301 249.5 273.235 249.43C270.954 243.7 265.962 239.489 259.931 238.204C253.896 236.918 247.618 238.727 243.201 243.032C241.306 244.844 239.794 247.02 238.763 249.43C238.697 249.5 238.666 249.594 238.677 249.688C234.154 259.926 230.4 270.507 225.963 280.831C215.811 304.471 204.803 324.608 180.995 334.252C163.496 340.556 144.793 342.806 126.297 340.822C123.481 340.65 120.665 340.392 117.934 340.138C95.8333 338.092 71.5136 329.217 59.3968 308.053C46.0846 284.929 43.9519 257.281 36.0146 231.938C33.5263 220.724 26.6007 210.993 16.8158 204.974C11.5425 201.958 8.35904 196.283 8.53872 190.213V186.541C8.31607 178.764 13.6519 171.92 21.2532 170.244L21.3392 170.159C43.3894 165.741 65.7638 163.143 88.2398 162.393C119.532 161.147 150.851 164.163 181.335 171.354C195.178 174.26 208.721 178.459 221.783 183.896C228.642 187.088 235.822 189.549 243.201 191.236C247.4 192.189 251.693 192.677 256.001 192.685C267.899 192.205 279.559 189.209 290.219 183.896C303.277 178.459 316.82 174.26 330.663 171.354C352.807 166.12 375.42 163.116 398.161 162.393C429.192 161.436 460.226 164.041 490.659 170.159L490.745 170.244C498.346 171.92 503.682 178.764 503.459 186.541V186.541Z" fill="#FC281C"/>
<path d="M477.862 186.541V190.213C478.042 196.283 474.859 201.958 469.585 204.974C459.8 210.993 452.875 220.724 450.383 231.938C442.449 257.281 440.316 284.929 427.004 308.053C414.887 329.217 390.568 338.092 368.467 340.138C365.736 340.392 362.92 340.65 360.104 340.822C350.131 340.088 340.327 337.873 331.007 334.252C307.199 324.608 296.191 304.471 286.035 280.831C281.598 270.507 277.844 259.926 273.321 249.688C273.333 249.594 273.301 249.5 273.235 249.43C270.954 243.7 265.962 239.489 259.931 238.204C253.896 236.918 247.618 238.727 243.201 243.032C234.326 234.329 244.564 243.032 238.935 256C238.849 256.086 230.4 255.918 230.4 256C225.877 266.242 222.123 276.824 217.686 287.148C207.534 310.784 196.526 330.924 172.718 340.564C163.332 344.318 136.281 339.967 126.297 340.822C123.481 340.65 120.665 340.392 117.934 340.138C95.8333 338.092 71.5136 329.217 59.3968 308.053C46.0846 284.929 43.9519 257.281 36.0146 231.938C33.5263 220.724 26.6007 210.993 16.8158 204.974C11.5425 201.958 8.35904 196.283 8.53872 190.213V186.541C8.31607 178.764 13.6519 171.92 21.2532 170.244L21.3392 170.159C43.3894 165.741 65.7638 163.143 88.2398 162.393C110.981 163.116 133.594 166.12 155.734 171.354C169.304 174.51 183.382 173.487 196.268 179.205C207.104 184.068 218.455 192.685 230.4 192.685C234.709 192.677 239.001 192.189 243.201 191.236C250.579 189.549 257.755 187.088 264.618 183.896C277.68 178.459 291.219 174.26 305.066 171.354C335.55 164.163 366.865 161.147 398.161 162.393C420.637 163.143 443.012 165.741 465.062 170.159L465.148 170.244C472.749 171.92 478.085 178.764 477.862 186.541Z" fill="#FD6158"/>
<path d="M102.575 162.139C105.22 128.175 139.012 93.8715 170.667 93.8715C203.694 93.8715 221.869 131.078 221.869 166.405C221.893 172.014 221.205 177.608 219.818 183.045L102.575 162.139Z" fill="white"/>
<path d="M173.23 169.561C182.444 166.444 188.386 157.487 187.671 147.784C186.952 138.077 179.761 130.089 170.187 128.359C160.613 126.628 151.082 131.597 147.016 140.437C142.945 149.276 145.375 159.749 152.922 165.893L173.23 169.561Z" fill="#51FF41"/>
<path d="M409.427 162.139L292.18 183.045C291.84 181.592 291.496 180.143 291.242 178.693C290.477 174.643 290.106 170.526 290.133 166.405C290.133 135.769 303.871 103.688 329.042 95.7503C333.022 94.5043 337.163 93.8715 341.331 93.8715C372.99 93.8715 406.778 128.175 409.427 162.139Z" fill="white"/>
<path d="M383.998 162.139L291.242 178.693C290.477 174.643 290.106 170.526 290.133 166.405C290.133 135.769 303.871 103.688 329.042 95.7503C358.565 105.527 379.908 131.308 383.998 162.139V162.139Z" fill="white"/>
<path d="M359.08 165.893C366.623 159.749 369.053 149.276 364.987 140.437C360.92 131.597 351.389 126.628 341.811 128.359C332.237 130.089 325.046 138.077 324.331 147.784C323.617 157.487 329.554 166.444 338.772 169.561L359.08 165.893Z" fill="#51FF41"/>
<path d="M492.28 161.838C484.253 160.245 476.273 158.936 468.339 157.796C440.125 64.1261 353.862 0.0145264 256.032 0.0145264C158.207 0.0145264 71.9433 64.1261 43.7292 157.796C35.7255 158.936 27.6789 160.253 19.5658 161.866C7.9997 164.393 -0.179772 174.721 0.00772374 186.56V190.228C-0.207114 199.466 4.72244 208.064 12.8082 212.544C20.5619 217.548 25.9875 225.454 27.8664 234.489C27.9171 234.669 27.9601 234.864 28.0226 235.051C20.7962 255.484 17.0932 276.996 17.0737 298.667C17.0737 416.297 124.258 511.993 256.001 511.993C387.744 511.993 494.928 416.297 494.928 298.667C494.905 276.96 491.206 255.414 483.987 234.942C483.987 234.797 484.065 234.645 484.108 234.489C485.991 225.45 491.428 217.54 499.194 212.544C507.276 208.064 512.205 199.466 511.994 190.228V186.56C512.166 174.67 503.909 164.319 492.28 161.838V161.838ZM256.001 17.0766C343.452 17.2602 421.192 72.8134 449.703 155.491C438.609 154.405 427.688 153.913 416.833 153.741C409.817 118.148 374.611 85.3404 341.331 85.3404C302.531 85.3404 281.598 127.109 281.598 166.405C281.629 170.26 281.946 174.108 282.547 177.916C274.188 181.701 265.169 183.822 256.001 184.162C246.829 183.822 237.814 181.701 229.455 177.916C230.056 174.108 230.373 170.26 230.4 166.405C230.4 127.152 209.467 85.3404 170.667 85.3404C137.391 85.3404 102.173 118.156 95.1498 153.749C84.3297 153.921 73.4238 154.417 62.3733 155.499C90.8139 72.8017 168.55 17.2289 256.001 17.0766V17.0766ZM339.991 160.67C335.081 158.225 332.288 152.909 333.061 147.476C333.835 142.042 338.003 137.718 343.401 136.745C348.799 135.769 354.217 138.362 356.842 143.179C359.471 147.999 358.713 153.956 354.967 157.964C349.944 158.76 344.952 159.663 339.991 160.67ZM345.596 119.472C334.741 119.422 324.718 125.296 319.456 134.796C314.195 144.292 314.531 155.901 320.331 165.081C313.41 166.838 306.175 168.889 299 171.397C298.828 169.741 298.664 168.112 298.664 166.405C298.664 135.378 313.617 102.406 341.331 102.406C365.803 102.406 392.529 127.152 399.357 153.87C391.091 154.124 382.9 154.651 374.779 155.448C376.705 146.643 374.521 137.441 368.842 130.441C363.166 123.441 354.612 119.406 345.596 119.472ZM157.015 157.975C153.195 153.944 152.398 147.921 155.035 143.034C157.672 138.152 163.148 135.515 168.613 136.499C174.073 137.484 178.288 141.866 179.054 147.362C179.819 152.858 176.968 158.229 171.984 160.67C167.046 159.663 162.054 158.764 157.015 157.975ZM166.402 119.472C157.39 119.406 148.836 123.445 143.156 130.445C137.481 137.448 135.293 146.651 137.219 155.456C129.106 154.655 120.915 154.132 112.645 153.885C119.469 127.152 146.195 102.406 170.667 102.406C198.385 102.406 213.334 135.378 213.334 166.405C213.334 168.112 213.174 169.741 213.037 171.397C205.827 168.889 198.588 166.838 191.702 165.081C197.506 155.897 197.838 144.28 192.569 134.781C187.3 125.281 177.265 119.41 166.402 119.472ZM256.001 494.927C133.66 494.927 34.1396 406.894 34.1396 298.667C34.1553 288.944 34.9873 279.238 36.624 269.656C39.6473 284.546 44.819 298.917 51.9829 312.319C67.8966 340.029 99.6145 346.982 117.098 348.654C139.652 351.876 162.652 349.666 184.179 342.205C211.748 331.061 223.838 307.413 233.849 284.179C236.056 279.058 238.115 273.812 240.181 268.59C242.244 263.367 244.275 258.168 246.458 253.125L246.607 252.766C248.13 248.828 251.946 246.25 256.169 246.313C260.395 246.379 264.134 249.067 265.54 253.051C267.759 258.168 269.805 263.375 271.856 268.59C273.903 273.8 275.977 279.023 278.188 284.179C288.195 307.421 300.285 331.068 327.858 342.205C342.069 347.591 357.186 350.197 372.385 349.884C380.396 349.884 388.041 349.337 394.935 348.662C412.419 346.955 444.137 340.037 460.05 312.331C467.214 298.929 472.39 284.554 475.413 269.664C477.038 279.245 477.858 288.948 477.862 298.667C477.862 406.894 378.338 494.927 256.001 494.927V494.927ZM494.928 190.228C495.065 193.119 493.659 195.869 491.233 197.447C479.405 204.482 470.948 216.024 467.808 229.423C465.035 238.348 462.953 247.528 460.984 256.402C458.132 272.902 452.844 288.882 445.281 303.823C433.192 324.873 407.54 330.275 393.333 331.674C373.506 334.568 353.28 332.756 334.284 326.381C314.726 318.471 304.656 302.44 293.895 277.421C291.746 272.437 289.758 267.375 287.77 262.324C285.645 256.941 283.5 251.555 281.121 245.992C276.915 235.856 267.02 229.247 256.044 229.247C245.068 229.247 235.17 235.856 230.963 245.992L230.853 246.258C228.556 251.555 226.443 256.941 224.318 262.324C222.33 267.375 220.342 272.437 218.189 277.421C207.428 302.44 197.362 318.471 177.804 326.381C158.804 332.744 138.578 334.557 118.755 331.674C104.544 330.307 78.8963 324.846 66.8028 303.823C59.2444 288.882 53.9516 272.902 51.104 256.402C49.0885 247.528 47.0065 238.348 44.2761 229.411C41.1356 216.021 32.6826 204.482 20.8626 197.447C18.3979 195.892 16.9526 193.138 17.0737 190.228V186.56C16.894 182.811 19.3978 179.459 23.0462 178.572C74.6112 167.62 127.934 167.975 179.347 179.611C192.667 182.467 205.698 186.525 218.283 191.732C230.052 197.498 242.904 200.732 256.001 201.228C269.102 200.736 281.957 197.502 293.734 191.732C306.32 186.525 319.351 182.467 332.671 179.611C384.13 167.967 437.508 167.62 489.116 178.6C492.694 179.541 495.12 182.865 494.928 186.56V190.228Z" fill="black"/>
<path d="M99.9046 190.236C96.5725 186.904 91.1702 186.904 87.8382 190.236L70.7718 207.303C68.553 209.447 67.6624 212.619 68.4436 215.603C69.2249 218.588 71.5569 220.916 74.5413 221.697C77.5218 222.478 80.6975 221.588 82.8382 219.369L99.9046 202.303C103.237 198.971 103.237 193.568 99.9046 190.236Z" fill="black"/>
<path d="M139.035 190.236L87.8376 241.434C85.6189 243.578 84.7283 246.75 85.5095 249.735C86.2908 252.719 88.6227 255.047 91.607 255.828C94.5874 256.609 97.7631 255.719 99.9037 253.5L151.102 202.302C154.336 198.955 154.289 193.631 151 190.342C147.707 187.049 142.383 187.002 139.035 190.236Z" fill="black"/>
<path d="M355.898 190.236C352.566 186.904 347.163 186.904 343.831 190.236L326.765 207.303C324.546 209.447 323.656 212.619 324.437 215.603C325.218 218.588 327.55 220.916 330.534 221.697C333.515 222.478 336.691 221.588 338.831 219.369L355.898 202.303C359.23 198.971 359.23 193.568 355.898 190.236Z" fill="black"/>
<path d="M395.029 190.236L343.831 241.434C341.612 243.578 340.721 246.75 341.503 249.735C342.284 252.719 344.616 255.047 347.6 255.828C350.581 256.609 353.756 255.719 355.897 253.5L407.095 202.302C410.329 198.955 410.282 193.631 406.993 190.342C403.7 187.049 398.376 187.002 395.029 190.236V190.236Z" fill="black"/>
<path d="M252.134 419.215C249.044 412.144 247.454 404.512 247.466 396.797C247.466 392.086 243.646 388.266 238.935 388.266C234.22 388.266 230.4 392.086 230.4 396.797C230.388 406.859 232.459 416.812 236.486 426.031C240.38 434.972 245.99 443.065 252.997 449.847C256.376 453.136 261.778 453.061 265.067 449.682C268.352 446.304 268.278 440.898 264.899 437.612C259.478 432.378 255.142 426.124 252.134 419.215V419.215Z" fill="black"/>
<path d="M375.463 388.266C370.752 388.266 366.932 392.086 366.932 396.797C366.94 404.512 365.354 412.144 362.264 419.215C359.248 426.128 354.897 432.378 349.463 437.612C346.085 440.898 346.01 446.304 349.295 449.682C352.584 453.061 357.987 453.136 361.365 449.847C368.373 443.065 373.982 434.972 377.877 426.031C381.916 416.816 383.998 406.859 383.998 396.797C383.998 392.086 380.177 388.266 375.463 388.266V388.266Z" fill="black"/>
<path d="M307.199 358.4C284.844 357.31 265.794 374.454 264.532 396.797C265.794 419.144 284.844 436.288 307.199 435.198C329.554 436.288 348.6 419.144 349.866 396.797C348.6 374.454 329.554 357.31 307.199 358.4V358.4ZM307.199 418.132C294.278 419.187 282.891 409.699 281.598 396.797C282.891 383.899 294.278 374.411 307.199 375.466C320.121 374.411 331.507 383.899 332.8 396.797C331.507 409.699 320.121 419.187 307.199 418.132Z" fill="black"/>
</g>
<defs>
<clipPath id="clip0">
<rect width="512" height="512" fill="white"/>
</clipPath>
</defs>
</svg>
