<svg width="512" height="512" viewBox="0 0 512 512" fill="none" xmlns="http://www.w3.org/2000/svg">
<g clip-path="url(#clip0)">
<path d="M486.339 298.712C486.339 411.755 383.192 503.467 255.984 503.467C251.72 503.467 247.455 503.385 243.19 503.127C121.953 497.241 25.6333 407.916 25.6333 298.712C25.6372 277.322 29.3903 256.096 36.7248 236.002C40.2592 226.395 42.4697 216.35 43.2937 206.141C51.1515 99.6513 136.599 15.4108 243.19 9.06449C247.455 8.72081 251.72 8.63879 255.984 8.63879C367.625 8.63879 460.372 94.7304 468.679 206.059C469.495 216.237 471.705 226.254 475.248 235.834C482.574 255.986 486.327 277.267 486.339 298.712V298.712Z" fill="#BF8608"/>
<path d="M460.743 298.712C460.743 407.916 364.423 497.241 243.19 503.127C121.953 497.241 25.6333 407.916 25.6333 298.712C25.6372 277.322 29.3903 256.096 36.7248 236.002C40.2592 226.395 42.4697 216.35 43.2937 206.141C51.1515 99.6514 136.599 15.4109 243.19 9.06458C349.75 15.4031 435.186 99.6006 443.082 206.059C443.899 216.237 446.109 226.254 449.651 235.834C456.982 255.986 460.735 277.267 460.743 298.712V298.712Z" fill="#FEB20A"/>
<path d="M409.554 242.403C406.641 253.049 400.958 262.731 393.089 270.472C384.228 270.249 375.37 270.905 366.641 272.432C364.337 272.862 361.947 273.373 359.561 273.971C348.942 276.396 338.854 280.735 329.786 286.765H329.7C296.41 276.759 277.101 242.106 286.103 208.531C286.365 207.43 286.709 206.344 287.126 205.29C287.755 203.275 288.525 201.306 289.431 199.404C300.1 201.283 310.93 202.111 321.764 201.876H321.85C338.936 201.74 355.8 197.987 371.332 190.871C378.354 187.539 384.919 183.326 390.871 178.33C394.71 181.998 396.67 184.302 396.67 184.302C410.242 200.381 415.053 222.095 409.554 242.403V242.403Z" fill="#CFD8DC"/>
<path d="M381.74 245.817C378.994 255.803 373.804 264.949 366.641 272.432C366.231 272.956 365.774 273.444 365.274 273.885C363.369 273.783 361.463 273.815 359.561 273.971C345.263 274.006 331.094 276.67 317.753 281.817C291.356 267.804 278.206 237.357 286.103 208.531C286.365 207.43 286.709 206.344 287.126 205.29C298.773 205.641 310.411 204.493 321.764 201.876H321.85C338.936 201.74 355.8 197.987 371.332 190.871C383.064 206.614 386.903 226.875 381.74 245.817V245.817Z" fill="white"/>
<path d="M188.842 290.093C164.87 270.643 134.068 269.191 114.193 270.897C108.714 264.215 104.703 256.451 102.418 248.117C97.7358 230.87 100.52 212.448 110.097 197.354C115.728 198.037 121.274 198.893 126.39 199.572C139.184 201.626 151.619 205.473 163.332 211.007C174.595 216.041 185.089 222.099 197.887 219.795C207.924 218.244 216.711 212.218 221.773 203.411C223.491 206.883 224.862 210.511 225.87 214.249C234.422 245.25 218.547 277.771 188.842 290.093V290.093Z" fill="white"/>
<path d="M185.089 219.537C188.85 230.3 183.484 242.118 172.904 246.367C162.328 250.616 150.276 245.797 145.546 235.424C140.817 225.051 145.081 212.792 155.228 207.594L185.089 219.537Z" fill="#00BCD4"/>
<path d="M368.371 220.767C368.371 232.546 358.823 242.095 347.044 242.095C335.265 242.095 325.716 232.546 325.716 220.767C325.716 208.988 335.265 199.435 347.044 199.435C358.823 199.435 368.371 208.988 368.371 220.767V220.767Z" fill="#00BCD4"/>
<path d="M255.984 512C387.703 512 494.869 416.317 494.869 298.712C494.88 276.275 490.952 254.014 483.258 232.94C479.977 224.087 477.939 214.815 477.2 205.399C468.605 89.5675 372.105 -0.019524 255.949 3.19162e-06C139.797 0.0195304 43.3289 89.6417 34.772 205.477C34.03 214.893 31.9875 224.161 28.703 233.018C21.0132 254.065 17.0882 276.302 17.1038 298.712C17.1038 416.317 124.265 512 255.984 512V512ZM44.7348 238.896C48.5583 228.551 50.9328 217.729 51.7842 206.731C59.6497 99.7802 148.71 17.016 255.949 16.9965C363.193 16.9731 452.284 99.706 460.188 206.657C461.04 217.643 463.406 228.457 467.226 238.795C474.236 257.99 477.817 278.271 477.806 298.712C477.806 406.916 378.303 494.937 255.984 494.937C133.67 494.937 34.1667 406.916 34.1667 298.712C34.155 278.306 37.7324 258.06 44.7348 238.896V238.896Z" fill="black"/>
<path d="M96.1305 282.364C96.7202 282.184 157.411 266.316 191.572 304.41C193.595 306.734 196.711 307.784 199.726 307.167C202.745 306.546 205.19 304.347 206.131 301.414C207.072 298.481 206.362 295.271 204.268 293.01C203.979 292.678 203.643 292.424 203.347 292.1C230.009 274.994 242.464 242.548 234.102 211.995C233.317 209.203 232.36 206.461 231.235 203.79C231.97 202.228 232.61 200.627 233.157 198.994C234.391 194.589 231.935 189.992 227.584 188.578C223.233 187.161 218.543 189.426 216.945 193.714C214.059 203.04 206.116 209.914 196.469 211.433C187.635 212.034 178.828 209.883 171.267 205.274L166.807 203.251C164.136 202.064 161.219 200.83 158.122 199.592L157.77 199.463C148.085 195.475 137.954 192.679 127.593 191.129L121.922 190.324C112.584 188.707 103.129 187.864 93.6544 187.801C91.3893 187.86 89.2374 188.82 87.6791 190.469C86.1208 192.121 85.2851 194.319 85.3553 196.588C85.3788 198.861 86.3278 201.025 87.9798 202.583C89.6318 204.145 91.8462 204.969 94.1153 204.864H96.8022C89.0616 224.071 90.0731 245.699 99.5751 264.098C95.0291 264.949 92.1704 265.684 91.6236 265.805C87.0777 267.047 84.4024 271.741 85.6444 276.291C86.8902 280.837 91.5845 283.516 96.1305 282.27V282.364ZM177.719 226.336V226.535C177.719 233.6 171.986 239.33 164.921 239.33C157.852 239.33 152.123 233.6 152.123 226.535C152.111 223.028 153.556 219.673 156.114 217.276C157.352 217.799 158.676 218.334 159.817 218.846L164.085 220.775C168.514 222.899 173.068 224.758 177.719 226.336ZM110.651 245.891C107.113 232.722 108.562 218.709 114.72 206.543L119.446 207.211L125.265 208.063C130.026 208.762 134.724 209.82 139.325 211.226C132.959 221.806 133.771 235.209 141.367 244.942C148.959 254.674 161.769 258.716 173.575 255.111C185.382 251.503 193.743 240.989 194.602 228.676C196.211 228.633 197.813 228.488 199.406 228.25C206.315 227.027 212.829 224.161 218.394 219.888C223.479 244.137 211.802 268.808 189.822 280.247C168.674 266.269 143.418 259.845 118.157 262.016C114.783 257.095 112.244 251.643 110.651 245.891Z" fill="black"/>
<path d="M278.167 205.547C278.101 205.801 277.964 206.024 277.894 206.278C269.165 238.74 283.783 272.955 313.277 289.089C311.399 290.854 309.505 292.576 307.731 294.564C305.509 296.798 304.701 300.075 305.626 303.082C306.552 306.093 309.059 308.35 312.148 308.952C315.242 309.553 318.413 308.405 320.401 305.964C324.626 301.262 329.446 297.13 334.741 293.678L334.878 293.6C369.457 271.034 415.619 281.297 416.143 281.426C420.732 282.5 425.324 279.653 426.398 275.064C427.476 270.475 424.629 265.883 420.04 264.805C419.408 264.668 415.561 263.832 409.699 263.098C426.129 236.572 423.481 202.458 403.157 178.783L403.028 178.639C404.122 177.53 405.219 176.444 406.278 175.226C409.339 171.711 409.011 166.388 405.543 163.275C402.075 160.162 396.748 160.408 393.585 163.826C354.03 207.918 283.971 189.566 283.26 189.422C278.862 188.188 274.281 190.664 272.899 195.018C271.52 199.373 273.84 204.036 278.144 205.563L278.167 205.547ZM347.071 207.961C353.941 207.832 359.736 213.054 360.318 219.904C360.904 226.75 356.077 232.878 349.281 233.917C342.486 234.952 336.054 230.542 334.57 223.829C333.086 217.119 337.057 210.406 343.658 208.48C344.45 208.344 345.235 208.215 346.028 208.063C346.36 208.035 346.692 207.961 347.044 207.961H347.071ZM318.385 210.589H319.12C317.89 213.843 317.245 217.287 317.218 220.767C317.136 234.081 325.88 245.844 338.655 249.601C351.429 253.354 365.145 248.199 372.285 236.959C379.424 225.715 378.256 211.109 369.422 201.142C376.737 198.139 383.681 194.304 390.121 189.711L390.179 189.769C401.919 203.708 406.102 222.509 401.372 240.107C399.103 248.168 395.018 255.6 389.429 261.837C368.164 261.489 347.2 266.859 328.719 277.38C301.768 267.382 286.88 238.49 294.379 210.742C294.551 210.117 294.84 209.574 295.027 208.957C302.76 210.031 310.555 210.574 318.362 210.589H318.385Z" fill="black"/>
<path d="M156.165 178.049C175.435 178.053 194.204 171.941 209.779 160.6C212.255 158.819 213.591 155.851 213.282 152.816C212.978 149.782 211.076 147.138 208.291 145.888C205.51 144.634 202.273 144.962 199.797 146.747C169.034 168.93 134.103 160.252 124.718 152.89C121.012 149.981 115.65 150.629 112.74 154.339C109.835 158.046 110.483 163.412 114.193 166.317C126.64 174.456 141.301 178.553 156.165 178.049Z" fill="black"/>
<path d="M290.614 169.883C294.843 171.961 299.952 170.219 302.029 165.993C316.237 137.148 369.047 119.315 369.574 119.14C374.05 117.659 376.483 112.832 375.003 108.353C373.523 103.877 368.695 101.448 364.216 102.928C361.767 103.779 304.088 123.166 286.724 158.452C285.724 160.483 285.572 162.83 286.298 164.974C287.029 167.118 288.583 168.887 290.614 169.883Z" fill="black"/>
<path d="M162.027 355.196C163.347 355.614 164.616 356.188 165.8 356.903C169.658 359.371 174.778 358.352 177.395 354.591C180.012 350.834 179.195 345.675 175.54 342.914C169.065 338.583 161.394 336.38 153.607 336.606C145.819 336.376 138.153 338.579 131.674 342.906C129.038 344.589 127.534 347.581 127.757 350.701C127.979 353.822 129.893 356.571 132.744 357.864C135.591 359.157 138.922 358.786 141.414 356.895C142.523 356.235 143.707 355.704 144.941 355.317C144.667 380.144 156.286 417.395 203.901 424.21C216.961 425.951 230.126 426.779 243.299 426.686C279.632 426.139 315.851 422.429 351.539 415.594C356.1 414.614 359.029 410.154 358.116 405.581C357.202 401.007 352.781 398.016 348.196 398.863C347.34 399.035 263.834 415.559 206.35 407.311C193.536 406.346 181.636 400.293 173.314 390.506C164.987 380.715 160.922 368.002 162.027 355.196V355.196Z" fill="black"/>
</g>
<defs>
<clipPath id="clip0">
<rect width="512" height="512" fill="white"/>
</clipPath>
</defs>
</svg>
