<svg width="512" height="512" viewBox="0 0 512 512" fill="none" xmlns="http://www.w3.org/2000/svg">
<path d="M256 512C397.419 512 512 397.419 512 256C512 114.581 397.419 0 256 0C114.581 0 0 114.581 0 256C0 397.419 114.581 512 256 512ZM117.141 250.453L363.968 155.285C375.424 151.147 385.429 158.08 381.717 175.403L381.739 175.381L339.712 373.376C336.597 387.413 328.256 390.827 316.587 384.213L252.587 337.045L221.717 366.784C218.304 370.197 215.424 373.077 208.811 373.077L213.355 307.947L331.968 200.789C337.131 196.245 330.816 193.685 324.011 198.208L177.429 290.496L114.24 270.784C100.523 266.432 100.224 257.067 117.141 250.453V250.453Z" fill="#917DE4"/>
</svg>
