<svg width="300" height="300" viewBox="0 0 300 300" fill="none" xmlns="http://www.w3.org/2000/svg">
<path d="M5.29901 144.645L74.425 170.445L101.181 256.492C102.893 262.003 109.632 264.04 114.105 260.383L152.637 228.971C156.676 225.68 162.429 225.516 166.65 228.58L236.148 279.037C240.933 282.515 247.712 279.893 248.912 274.111L299.823 29.22C301.133 22.904 294.927 17.635 288.913 19.961L5.21801 129.402C-1.78299 132.102 -1.72199 142.014 5.29901 144.645ZM96.869 156.711L231.967 73.504C234.395 72.013 236.893 75.296 234.808 77.23L123.313 180.87C119.394 184.518 116.866 189.4 116.15 194.699L112.352 222.845C111.849 226.603 106.57 226.976 105.533 223.339L90.926 172.014C89.253 166.16 91.691 159.907 96.869 156.711Z" fill="#917DE4"/>
</svg>
